<?xml version="1.0" encoding="UTF-8" standalone="no"?>
<!-- Created with Inkscape (http://www.inkscape.org/) -->
<svg
   xmlns:dc="http://purl.org/dc/elements/1.1/"
   xmlns:cc="http://web.resource.org/cc/"
   xmlns:rdf="http://www.w3.org/1999/02/22-rdf-syntax-ns#"
   xmlns:svg="http://www.w3.org/2000/svg"
   xmlns="http://www.w3.org/2000/svg"
   xmlns:sodipodi="http://sodipodi.sourceforge.net/DTD/sodipodi-0.dtd"
   xmlns:inkscape="http://www.inkscape.org/namespaces/inkscape"
   width="405.19092"
   height="205"
   id="svg6709"
   sodipodi:version="0.32"
   inkscape:version="0.45pre1"
   version="1.0"
   sodipodi:docbase="C:\Documents and Settings\ryan\My Documents\My Pictures"
   sodipodi:docname="lmc_DB9_Female.svg"
   inkscape:output_extension="org.inkscape.output.svg.inkscape"
   sodipodi:modified="true">
  <defs
     id="defs6711" />
  <sodipodi:namedview
     id="base"
     pagecolor="#ffffff"
     bordercolor="#666666"
     borderopacity="1.0"
     gridtolerance="10000"
     guidetolerance="10"
     objecttolerance="10"
     inkscape:pageopacity="0.0"
     inkscape:pageshadow="2"
     inkscape:zoom="0.98994949"
     inkscape:cx="375"
     inkscape:cy="129.80416"
     inkscape:document-units="px"
     inkscape:current-layer="layer1"
     inkscape:window-width="900"
     inkscape:window-height="583"
     inkscape:window-x="46"
     inkscape:window-y="46" />
  <metadata
     id="metadata6714">
    <rdf:RDF>
      <cc:Work
         rdf:about="">
        <dc:format>image/svg+xml</dc:format>
        <dc:type
           rdf:resource="http://purl.org/dc/dcmitype/StillImage" />
      </cc:Work>
    </rdf:RDF>
  </metadata>
  <g
     inkscape:label="Layer 1"
     inkscape:groupmode="layer"
     id="layer1"
     transform="translate(-172.4045,-429.8622)">
    <path
       style="fill:#808080;fill-opacity:1;stroke:#000000;stroke-width:7.14829302;stroke-linecap:butt;stroke-linejoin:round;stroke-miterlimit:11.60000038;stroke-dasharray:none;stroke-opacity:1"
       d="M 199.45988,433.43635 C 182.33398,433.43635 172.38783,447.00806 177.18346,463.86029 L 216.20625,600.86411 C 221.00188,617.71634 238.63428,631.28806 255.76018,631.28805 L 290.84632,631.28805 L 459.15359,631.28805 L 494.23973,631.28805 C 511.36563,631.28805 529.02927,617.71637 533.8249,600.86411 L 572.81645,463.86029 C 577.61209,447.00803 567.66594,433.43635 550.54003,433.43635 L 402.85329,433.43635 L 347.14662,433.43635 L 199.45988,433.43635 z "
       id="rect11737" />
    <path
       sodipodi:type="arc"
       style="fill:#fad85f;fill-opacity:1;stroke:#957311;stroke-width:4.90450144;stroke-linecap:butt;stroke-linejoin:round;stroke-miterlimit:11.60000038;stroke-dasharray:none;stroke-opacity:1"
       id="path13521"
       sodipodi:cx="142.07622"
       sodipodi:cy="347.57501"
       sodipodi:rx="13.106663"
       sodipodi:ry="13.106663"
       d="M 155.18288 347.57501 A 13.106663 13.106663 0 1 1  128.96955,347.57501 A 13.106663 13.106663 0 1 1  155.18288 347.57501 z"
       transform="matrix(0.715873,0,0,0.715873,132.77217,240.6176)" />
    <path
       sodipodi:type="arc"
       style="fill:#fad85f;fill-opacity:1;stroke:#957311;stroke-width:4.90450144;stroke-linecap:butt;stroke-linejoin:round;stroke-miterlimit:11.60000038;stroke-dasharray:none;stroke-opacity:1"
       id="path15293"
       sodipodi:cx="142.07622"
       sodipodi:cy="347.57501"
       sodipodi:rx="13.106663"
       sodipodi:ry="13.106663"
       d="M 155.18288 347.57501 A 13.106663 13.106663 0 1 1  128.96955,347.57501 A 13.106663 13.106663 0 1 1  155.18288 347.57501 z"
       transform="matrix(0.715873,0,0,0.715873,203.0311,240.6176)" />
    <path
       sodipodi:type="arc"
       style="fill:#fad85f;fill-opacity:1;stroke:#957311;stroke-width:4.90450144;stroke-linecap:butt;stroke-linejoin:round;stroke-miterlimit:11.60000038;stroke-dasharray:none;stroke-opacity:1"
       id="path15295"
       sodipodi:cx="142.07622"
       sodipodi:cy="347.57501"
       sodipodi:rx="13.106663"
       sodipodi:ry="13.106663"
       d="M 155.18288 347.57501 A 13.106663 13.106663 0 1 1  128.96955,347.57501 A 13.106663 13.106663 0 1 1  155.18288 347.57501 z"
       transform="matrix(0.715873,0,0,0.715873,273.2899,240.6176)" />
    <path
       sodipodi:type="arc"
       style="fill:#fad85f;fill-opacity:1;stroke:#957311;stroke-width:4.90450144;stroke-linecap:butt;stroke-linejoin:round;stroke-miterlimit:11.60000038;stroke-dasharray:none;stroke-opacity:1"
       id="path15297"
       sodipodi:cx="142.07622"
       sodipodi:cy="347.57501"
       sodipodi:rx="13.106663"
       sodipodi:ry="13.106663"
       d="M 155.18288 347.57501 A 13.106663 13.106663 0 1 1  128.96955,347.57501 A 13.106663 13.106663 0 1 1  155.18288 347.57501 z"
       transform="matrix(0.715873,0,0,0.715873,343.5488,240.6176)" />
    <path
       sodipodi:type="arc"
       style="fill:#fad85f;fill-opacity:1;stroke:#957311;stroke-width:4.90450144;stroke-linecap:butt;stroke-linejoin:round;stroke-miterlimit:11.60000038;stroke-dasharray:none;stroke-opacity:1"
       id="path15299"
       sodipodi:cx="142.07622"
       sodipodi:cy="347.57501"
       sodipodi:rx="13.106663"
       sodipodi:ry="13.106663"
       d="M 155.18288 347.57501 A 13.106663 13.106663 0 1 1  128.96955,347.57501 A 13.106663 13.106663 0 1 1  155.18288 347.57501 z"
       transform="matrix(0.715873,0,0,0.715873,413.8077,240.6176)" />
    <path
       sodipodi:type="arc"
       style="fill:#fad85f;fill-opacity:1;stroke:#957311;stroke-width:4.90450144;stroke-linecap:butt;stroke-linejoin:round;stroke-miterlimit:11.60000038;stroke-dasharray:none;stroke-opacity:1"
       id="path15301"
       sodipodi:cx="142.07622"
       sodipodi:cy="347.57501"
       sodipodi:rx="13.106663"
       sodipodi:ry="13.106663"
       d="M 155.18288 347.57501 A 13.106663 13.106663 0 1 1  128.96955,347.57501 A 13.106663 13.106663 0 1 1  155.18288 347.57501 z"
       transform="matrix(0.715873,0,0,0.715873,163.80771,316.9309)" />
    <path
       sodipodi:type="arc"
       style="fill:#fad85f;fill-opacity:1;stroke:#957311;stroke-width:4.90450144;stroke-linecap:butt;stroke-linejoin:round;stroke-miterlimit:11.60000038;stroke-dasharray:none;stroke-opacity:1"
       id="path15303"
       sodipodi:cx="142.07622"
       sodipodi:cy="347.57501"
       sodipodi:rx="13.106663"
       sodipodi:ry="13.106663"
       d="M 155.18288 347.57501 A 13.106663 13.106663 0 1 1  128.96955,347.57501 A 13.106663 13.106663 0 1 1  155.18288 347.57501 z"
       transform="matrix(0.715873,0,0,0.715873,235.0665,316.9309)" />
    <path
       sodipodi:type="arc"
       style="fill:#fad85f;fill-opacity:1;stroke:#957311;stroke-width:4.90450144;stroke-linecap:butt;stroke-linejoin:round;stroke-miterlimit:11.60000038;stroke-dasharray:none;stroke-opacity:1"
       id="path15305"
       sodipodi:cx="142.07622"
       sodipodi:cy="347.57501"
       sodipodi:rx="13.106663"
       sodipodi:ry="13.106663"
       d="M 155.18288 347.57501 A 13.106663 13.106663 0 1 1  128.96955,347.57501 A 13.106663 13.106663 0 1 1  155.18288 347.57501 z"
       transform="matrix(0.715873,0,0,0.715873,306.3254,316.9309)" />
    <path
       sodipodi:type="arc"
       style="fill:#fad85f;fill-opacity:1;stroke:#957311;stroke-width:4.90450144;stroke-linecap:butt;stroke-linejoin:round;stroke-miterlimit:11.60000038;stroke-dasharray:none;stroke-opacity:1"
       id="path15307"
       sodipodi:cx="142.07622"
       sodipodi:cy="347.57501"
       sodipodi:rx="13.106663"
       sodipodi:ry="13.106663"
       d="M 155.18288 347.57501 A 13.106663 13.106663 0 1 1  128.96955,347.57501 A 13.106663 13.106663 0 1 1  155.18288 347.57501 z"
       transform="matrix(0.715873,0,0,0.715873,377.5842,316.9309)" />
    <path
       style="font-size:28px;font-style:normal;font-variant:normal;font-weight:normal;font-stretch:normal;text-align:start;line-height:125%;writing-mode:lr-tb;text-anchor:start;fill:#000000;fill-opacity:1;stroke:none;stroke-width:1px;stroke-linecap:butt;stroke-linejoin:miter;stroke-opacity:1;font-family:Verdana"
       d="M 240.98851,463.39542 C 240.98849,464.34334 240.81532,465.25024 240.46898,466.11612 C 240.12261,466.98201 239.64865,467.71117 239.0471,468.30362 C 238.39084,468.94164 237.60927,469.43155 236.70238,469.77335 C 235.79547,470.11514 234.74501,470.28604 233.55101,470.28604 C 232.43902,470.28604 231.36806,470.16983 230.33812,469.93741 C 229.30817,469.70499 228.43773,469.42471 227.72679,469.09659 L 227.72679,466.21182 L 227.9182,466.21182 C 228.66559,466.68578 229.54059,467.0891 230.5432,467.42178 C 231.5458,467.75447 232.53017,467.92081 233.49632,467.92081 C 234.14345,467.92081 234.77008,467.82966 235.37621,467.64737 C 235.98231,467.46508 236.52235,467.14607 236.99632,466.69034 C 237.39735,466.29841 237.70041,465.82901 237.9055,465.28214 C 238.11057,464.73527 238.21311,464.1018 238.21312,463.38174 C 238.21311,462.67993 238.09234,462.08748 237.85081,461.6044 C 237.60927,461.12134 237.27431,460.73397 236.84593,460.44229 C 236.37196,460.09595 235.79547,459.85213 235.11644,459.71085 C 234.43739,459.56958 233.67861,459.49894 232.84007,459.49893 C 232.03798,459.49894 231.26552,459.55363 230.52269,459.66299 C 229.77985,459.77238 229.13955,459.88175 228.60179,459.99112 L 228.60179,449.50479 L 240.85179,449.50479 L 240.85179,451.89737 L 231.24046,451.89737 L 231.24046,457.31143 C 231.63238,457.27499 232.03343,457.24764 232.44359,457.2294 C 232.85374,457.21118 233.20921,457.20207 233.50999,457.20206 C 234.61285,457.20207 235.57899,457.29549 236.40843,457.48233 C 237.23785,457.66919 237.99891,457.99959 238.69164,458.47354 C 239.42079,458.97485 239.98589,459.62199 240.38695,460.41495 C 240.78797,461.20792 240.98849,462.20141 240.98851,463.39542 L 240.98851,463.39542 z "
       id="text16218" />
    <path
       style="font-size:28px;font-style:normal;font-variant:normal;font-weight:normal;font-stretch:normal;text-align:start;line-height:125%;writing-mode:lr-tb;text-anchor:start;fill:#000000;fill-opacity:1;stroke:none;stroke-width:1px;stroke-linecap:butt;stroke-linejoin:miter;stroke-opacity:1;font-family:Verdana"
       d="M 312.09506,464.1337 L 309.07358,464.1337 L 309.07358,469.86221 L 306.44858,469.86221 L 306.44858,464.1337 L 296.70053,464.1337 L 296.70053,460.98917 L 306.55795,449.50479 L 309.07358,449.50479 L 309.07358,461.9462 L 312.09506,461.9462 L 312.09506,464.1337 z M 306.44858,461.9462 L 306.44858,452.7587 L 298.55991,461.9462 L 306.44858,461.9462 z "
       id="text16234" />
    <path
       style="font-size:28px;font-style:normal;font-variant:normal;font-weight:normal;font-stretch:normal;text-align:start;line-height:125%;writing-mode:lr-tb;text-anchor:start;fill:#000000;fill-opacity:1;stroke:none;stroke-width:1px;stroke-linecap:butt;stroke-linejoin:miter;stroke-opacity:1;font-family:Verdana"
       d="M 380.20062,459.63565 C 380.63811,460.02759 380.99813,460.51977 381.2807,461.11221 C 381.56324,461.70467 381.70451,462.47029 381.70453,463.40909 C 381.70451,464.33878 381.53589,465.19099 381.19867,465.96573 C 380.86141,466.74047 380.38746,467.41495 379.77679,467.98917 C 379.09319,468.62719 378.28883,469.09887 377.36371,469.40421 C 376.43857,469.70954 375.42457,469.86221 374.32172,469.86221 C 373.1915,469.86221 372.07952,469.72777 370.98578,469.45889 C 369.89202,469.19001 368.99424,468.89607 368.29242,468.57706 L 368.29242,465.71964 L 368.4975,465.71964 C 369.27223,466.23005 370.18369,466.65388 371.23187,466.99112 C 372.28004,467.32836 373.29176,467.49698 374.26703,467.49698 C 374.84124,467.49698 375.45192,467.40128 376.09906,467.20987 C 376.74618,467.01847 377.27027,466.73591 377.67133,466.36221 C 378.09058,465.96117 378.40276,465.51912 378.60785,465.03604 C 378.81291,464.55297 378.91545,463.9423 378.91547,463.20401 C 378.91545,462.47485 378.79924,461.87101 378.56683,461.39249 C 378.3344,460.91398 378.01311,460.538 377.60297,460.26456 C 377.1928,459.98201 376.69605,459.78833 376.11273,459.6835 C 375.52939,459.57869 374.90048,459.52629 374.22601,459.52628 L 372.99554,459.52628 L 372.99554,457.25674 L 373.95258,457.25674 C 375.33798,457.25676 376.44313,456.96737 377.26801,456.38858 C 378.09286,455.80982 378.5053,454.96444 378.50531,453.85245 C 378.5053,453.36028 378.40048,452.92961 378.19086,452.56046 C 377.98121,452.19133 377.68954,451.88827 377.31586,451.65128 C 376.92392,451.41431 376.50465,451.25025 376.05804,451.15909 C 375.61142,451.06796 375.10556,451.02239 374.54047,451.02237 C 373.67457,451.02239 372.754,451.17734 371.77875,451.48721 C 370.80348,451.79713 369.88291,452.23463 369.01703,452.79971 L 368.88031,452.79971 L 368.88031,449.94229 C 369.52744,449.6233 370.39105,449.32936 371.47113,449.06046 C 372.5512,448.7916 373.5971,448.65716 374.60883,448.65714 C 375.60231,448.65716 376.4773,448.7483 377.23383,448.93057 C 377.99032,449.11288 378.67392,449.40455 379.28461,449.80557 C 379.94084,450.24309 380.43759,450.77174 380.77484,451.39151 C 381.11207,452.01132 381.28069,452.73593 381.2807,453.56534 C 381.28069,454.69556 380.88192,455.68221 380.08441,456.5253 C 379.28687,457.36841 378.34579,457.89933 377.26117,458.11807 L 377.26117,458.30948 C 377.69866,458.38241 378.19996,458.53508 378.76508,458.76749 C 379.33017,458.99992 379.80868,459.28931 380.20062,459.63565 L 380.20062,459.63565 z "
       id="text16238" />
    <path
       style="font-size:28px;font-style:normal;font-variant:normal;font-weight:normal;font-stretch:normal;text-align:start;line-height:125%;writing-mode:lr-tb;text-anchor:start;fill:#000000;fill-opacity:1;stroke:none;stroke-width:1px;stroke-linecap:butt;stroke-linejoin:miter;stroke-opacity:1;font-family:Verdana"
       d="M 452.48978,469.86221 L 438.70853,469.86221 L 438.70853,467.00479 C 439.66555,466.18448 440.62486,465.36417 441.58646,464.54385 C 442.54804,463.72355 443.44355,462.90779 444.27298,462.09659 C 446.02297,460.40129 447.22154,459.05461 447.86868,458.05655 C 448.51581,457.05852 448.83937,455.98072 448.83939,454.82315 C 448.83937,453.76588 448.49074,452.93873 447.79349,452.34171 C 447.09621,451.74472 446.12323,451.44622 444.87454,451.4462 C 444.04511,451.44622 443.14732,451.59205 442.18118,451.8837 C 441.21503,452.17538 440.27167,452.622 439.3511,453.22354 L 439.21439,453.22354 L 439.21439,450.35245 C 439.86152,450.03346 440.72512,449.74179 441.80521,449.47745 C 442.88528,449.21315 443.93118,449.08098 444.9429,449.08096 C 447.03013,449.08098 448.6662,449.58456 449.8511,450.59171 C 451.03599,451.59889 451.62843,452.96379 451.62845,454.68643 C 451.62843,455.46119 451.53045,456.18352 451.3345,456.85342 C 451.13853,457.52336 450.84914,458.1591 450.46634,458.76065 C 450.11086,459.32577 449.69386,459.88175 449.21536,460.42862 C 448.73683,460.9755 448.15578,461.58162 447.4722,462.24698 C 446.49693,463.20402 445.48977,464.13142 444.45071,465.02921 C 443.41164,465.927 442.44094,466.7587 441.5386,467.52432 L 452.48978,467.52432 L 452.48978,469.86221 z "
       id="text16242" />
    <path
       style="font-size:28px;font-style:normal;font-variant:normal;font-weight:normal;font-stretch:normal;text-align:start;line-height:125%;writing-mode:lr-tb;text-anchor:start;fill:#000000;fill-opacity:1;stroke:none;stroke-width:1px;stroke-linecap:butt;stroke-linejoin:miter;stroke-opacity:1;font-family:Verdana"
       d="M 521.14905,469.43839 L 510.12952,469.43839 L 510.12952,467.36026 L 514.3678,467.36026 L 514.3678,453.71573 L 510.12952,453.71573 L 510.12952,451.85635 C 510.70373,451.85637 511.31896,451.80852 511.97522,451.7128 C 512.63146,451.61711 513.12821,451.47812 513.46545,451.29581 C 513.88472,451.06796 514.21512,450.77857 514.45667,450.42764 C 514.69819,450.07675 514.83719,449.60507 514.87366,449.0126 L 516.9928,449.0126 L 516.9928,467.36026 L 521.14905,467.36026 L 521.14905,469.43839 z "
       id="text16246" />
    <path
       style="font-size:28px;font-style:normal;font-variant:normal;font-weight:normal;font-stretch:normal;text-align:start;line-height:125%;writing-mode:lr-tb;text-anchor:start;fill:#000000;fill-opacity:1;stroke:none;stroke-width:1px;stroke-linecap:butt;stroke-linejoin:miter;stroke-opacity:1;font-family:Verdana"
       d="M 272.39319,593.92737 C 272.39317,595.70472 272.19037,597.318 271.78479,598.76721 C 271.37918,600.21644 270.76622,601.45146 269.94592,602.47229 C 269.11648,603.51135 268.07742,604.31344 266.82874,604.87854 C 265.58003,605.44364 264.11258,605.7262 262.42639,605.7262 C 261.95243,605.7262 261.50581,605.70113 261.08655,605.651 C 260.66727,605.60087 260.29358,605.52112 259.96545,605.41174 L 259.96545,602.80042 L 260.10217,602.80042 C 260.36649,602.93714 260.74019,603.06702 261.22327,603.19006 C 261.70633,603.31311 262.24409,603.37464 262.83655,603.37463 C 264.85086,603.37464 266.42996,602.7708 267.57385,601.56311 C 268.71772,600.35543 269.38081,598.68974 269.56311,596.56604 C 268.71544,597.07646 267.91792,597.44105 267.17053,597.65979 C 266.42313,597.87855 265.60737,597.98792 264.72327,597.98792 C 263.88472,597.98792 263.12593,597.90589 262.4469,597.74182 C 261.76786,597.57777 261.08654,597.25876 260.40295,596.78479 C 259.60087,596.22881 258.99703,595.52243 258.59143,594.66565 C 258.18583,593.80889 257.98303,592.7835 257.98303,591.58948 C 257.98303,589.51137 258.66662,587.82061 260.03381,586.51721 C 261.401,585.21385 263.06896,584.56215 265.03772,584.56213 C 266.02209,584.56215 266.93354,584.71482 267.77209,585.02014 C 268.61062,585.3255 269.34435,585.78351 269.97327,586.39417 C 270.74799,587.15069 271.345,588.12367 271.76428,589.31311 C 272.18354,590.50258 272.39317,592.04066 272.39319,593.92737 L 272.39319,593.92737 z M 269.63147,593.33948 C 269.63146,591.92673 269.48562,590.79197 269.19397,589.93518 C 268.90229,589.07843 268.50125,588.41306 267.99084,587.93909 C 267.56245,587.52895 267.10216,587.235 266.60999,587.05725 C 266.11779,586.87954 265.58459,586.79067 265.01038,586.79065 C 263.69787,586.79067 262.66109,587.20082 261.90002,588.02112 C 261.13895,588.84145 260.75842,589.99444 260.75842,591.4801 C 260.75842,592.346 260.88147,593.05238 261.12756,593.59924 C 261.37365,594.14613 261.78837,594.62464 262.3717,595.03479 C 262.78185,595.31735 263.23303,595.50648 263.72522,595.60217 C 264.2174,595.69789 264.76427,595.74574 265.36584,595.74573 C 266.07677,595.74574 266.79682,595.65003 267.526,595.45862 C 268.25516,595.26722 268.93875,594.98923 269.57678,594.62463 C 269.58588,594.43324 269.59728,594.24411 269.61096,594.05725 C 269.62462,593.87041 269.63146,593.63116 269.63147,593.33948 L 269.63147,593.33948 z "
       id="text16250" />
    <path
       style="font-size:28px;font-style:normal;font-variant:normal;font-weight:normal;font-stretch:normal;text-align:start;line-height:125%;writing-mode:lr-tb;text-anchor:start;fill:#000000;fill-opacity:1;stroke:none;stroke-width:1px;stroke-linecap:butt;stroke-linejoin:miter;stroke-opacity:1;font-family:Verdana"
       d="M 343.83661,600.07971 C 343.83659,601.83883 343.15072,603.30172 341.77899,604.46838 C 340.40723,605.63505 338.6823,606.21838 336.60419,606.21838 C 334.39845,606.21838 332.64162,605.64872 331.33368,604.5094 C 330.02573,603.37008 329.37176,601.91175 329.37177,600.1344 C 329.37176,599.0042 329.69989,597.98109 330.35614,597.06506 C 331.01239,596.14906 331.93752,595.42217 333.13153,594.8844 L 333.13153,594.80237 C 332.03778,594.21905 331.22886,593.58103 330.70477,592.88831 C 330.18068,592.19561 329.91864,591.32973 329.91864,590.29065 C 329.91864,588.75942 330.54754,587.48338 331.80536,586.46252 C 333.06317,585.44171 334.66277,584.9313 336.60419,584.93127 C 338.63673,584.9313 340.25912,585.41892 341.47137,586.39417 C 342.6836,587.36944 343.28972,588.60903 343.28973,590.11292 C 343.28972,591.0335 343.00261,591.93812 342.42841,592.82678 C 341.85417,593.71547 341.01107,594.41045 339.89911,594.91174 L 339.89911,594.99377 C 341.17514,595.54066 342.1504,596.21514 342.82489,597.01721 C 343.49935,597.8193 343.83659,598.84014 343.83661,600.07971 L 343.83661,600.07971 z M 340.59637,590.14026 C 340.59636,589.16501 340.22039,588.388 339.46844,587.8092 C 338.71648,587.23045 337.75717,586.94106 336.59052,586.94104 C 335.44207,586.94106 334.50099,587.2145 333.76727,587.76135 C 333.03354,588.30824 332.66668,589.04653 332.66669,589.9762 C 332.66668,590.63246 332.85125,591.19984 333.2204,591.67834 C 333.58953,592.15687 334.1478,592.58298 334.8952,592.95667 C 335.23243,593.12074 335.71779,593.33493 336.35126,593.59924 C 336.98471,593.86358 337.60222,594.08233 338.2038,594.25549 C 339.10613,593.65394 339.73048,593.02959 340.07684,592.38245 C 340.42318,591.73532 340.59636,590.98793 340.59637,590.14026 L 340.59637,590.14026 z M 341.0202,600.33948 C 341.02019,599.50094 340.83562,598.82874 340.46649,598.32288 C 340.09734,597.81702 339.37501,597.30889 338.2995,596.79846 C 337.8711,596.59795 337.4017,596.4111 336.8913,596.23792 C 336.38087,596.06475 335.70184,595.82321 334.85419,595.51331 C 334.03387,595.95993 333.37534,596.56605 332.8786,597.33167 C 332.38185,598.0973 332.13348,598.96318 332.13348,599.92932 C 332.13348,601.15979 332.55731,602.17607 333.40497,602.97815 C 334.25262,603.78023 335.32814,604.18128 336.63153,604.18127 C 337.96225,604.18128 339.02638,603.83948 339.82391,603.15588 C 340.62143,602.47229 341.02019,601.53349 341.0202,600.33948 L 341.0202,600.33948 z "
       id="text16254" />
    <path
       style="font-size:28px;font-style:normal;font-variant:normal;font-weight:normal;font-stretch:normal;text-align:start;line-height:125%;writing-mode:lr-tb;text-anchor:start;fill:#000000;fill-opacity:1;stroke:none;stroke-width:1px;stroke-linecap:butt;stroke-linejoin:miter;stroke-opacity:1;font-family:Verdana"
       d="M 415.17062,587.9801 L 405.95578,605.2887 L 403.03,605.2887 L 412.83273,587.32385 L 401.23898,587.32385 L 401.23898,584.93127 L 415.17062,584.93127 L 415.17062,587.9801 z "
       id="text16258" />
    <path
       style="font-size:28px;font-style:normal;font-variant:normal;font-weight:normal;font-stretch:normal;text-align:start;line-height:125%;writing-mode:lr-tb;text-anchor:start;fill:#000000;fill-opacity:1;stroke:none;stroke-width:1px;stroke-linecap:butt;stroke-linejoin:miter;stroke-opacity:1;font-family:Verdana"
       d="M 486.82593,598.75354 C 486.82591,600.82255 486.1446,602.51103 484.78198,603.81897 C 483.41934,605.12691 481.74909,605.78088 479.77124,605.78088 C 478.76863,605.78088 477.85717,605.62594 477.03687,605.31604 C 476.21655,605.00614 475.49194,604.54586 474.86304,603.93518 C 474.07918,603.17867 473.47534,602.17607 473.05151,600.92737 C 472.62768,599.67868 472.41577,598.17477 472.41577,596.41565 C 472.41577,594.61097 472.60945,593.01136 472.99683,591.61682 C 473.38419,590.22231 474.00171,588.98272 474.84937,587.89807 C 475.65144,586.86814 476.68595,586.06378 477.95288,585.48499 C 479.2198,584.90623 480.69636,584.61684 482.38257,584.61682 C 482.92032,584.61684 483.37149,584.63963 483.73608,584.68518 C 484.10065,584.73077 484.46979,584.81281 484.84351,584.93127 L 484.84351,587.5426 L 484.70679,587.5426 C 484.45156,587.4059 484.06647,587.27602 483.55151,587.15295 C 483.03653,587.02993 482.51016,586.9684 481.97241,586.96838 C 480.01277,586.9684 478.44962,587.58136 477.28296,588.80725 C 476.11629,590.03318 475.43725,591.68975 475.24585,593.77698 C 476.01147,593.31215 476.7657,592.95896 477.50854,592.71741 C 478.25138,592.47588 479.11042,592.35512 480.08569,592.3551 C 480.95157,592.35512 481.71491,592.43487 482.37573,592.59436 C 483.03653,592.75388 483.71328,593.07517 484.40601,593.55823 C 485.20807,594.11423 485.81192,594.81605 486.21753,595.6637 C 486.62311,596.51136 486.82591,597.54131 486.82593,598.75354 L 486.82593,598.75354 z M 484.05054,598.86292 C 484.05052,598.01527 483.9252,597.31344 483.67456,596.75745 C 483.4239,596.20147 483.01146,595.71839 482.43726,595.30823 C 482.01797,595.01657 481.55313,594.82517 481.04272,594.73401 C 480.5323,594.64287 479.9991,594.5973 479.44312,594.59729 C 478.66837,594.5973 477.94832,594.68845 477.28296,594.87073 C 476.61759,595.05303 475.934,595.33558 475.23218,595.71838 C 475.21394,595.91891 475.20027,596.1126 475.19116,596.29944 C 475.18204,596.4863 475.17749,596.721 475.17749,597.00354 C 475.17749,598.44365 475.3256,599.58069 475.62183,600.41467 C 475.91804,601.24866 476.32592,601.90719 476.84546,602.39026 C 477.26472,602.7913 477.71817,603.08525 478.20581,603.27209 C 478.69343,603.45895 479.22436,603.55237 479.79858,603.55237 C 481.12019,603.55237 482.15925,603.14905 482.91577,602.34241 C 483.67227,601.53577 484.05052,600.37594 484.05054,598.86292 L 484.05054,598.86292 z "
       id="text16262" />
  </g>
</svg>
