<?xml version="1.0" encoding="UTF-8" standalone="no"?>
<!DOCTYPE svg PUBLIC "-//W3C//DTD SVG 1.0//EN" "http://www.w3.org/TR/2001/PR-SVG-20010719/DTD/svg10.dtd">
<svg width="47cm" height="29cm" viewBox="90 38 936 565" xmlns="http://www.w3.org/2000/svg" xmlns:xlink="http://www.w3.org/1999/xlink">
  <g>
    <rect style="fill: #9f9f9f" x="95" y="278" width="78" height="78"/>
    <rect style="fill: none; fill-opacity:0; stroke-width: 2; stroke: #7f7f7f" x="95" y="278" width="78" height="78"/>
    <rect style="fill: none; fill-opacity:0; stroke-width: 2; stroke: #7f7f7f" x="95" y="278" width="78" height="78"/>
    <path style="fill: none; fill-opacity:0; stroke-width: 2.6; stroke: #ffffff" d="M 138.826 290.626 C 138.826,329.626 146.626,321.826 107.626,321.826"/>
    <path style="fill: none; fill-opacity:0; stroke-width: 1.6; stroke: #000000" d="M 138.826 290.626 C 138.826,329.626 146.626,321.826 107.626,321.826"/>
    <polygon style="fill: #000000" points="142.58,296.72 138.68,288.92 134.78,296.72 "/>
    <polygon style="fill: none; fill-opacity:0; stroke-width: 2; stroke: #7f7f7f" points="142.58,296.72 138.68,288.92 134.78,296.72 "/>
    <polygon style="fill: #000000" points="113.72,317.78 105.92,321.68 113.72,325.58 "/>
    <polygon style="fill: none; fill-opacity:0; stroke-width: 2; stroke: #7f7f7f" points="113.72,317.78 105.92,321.68 113.72,325.58 "/>
    <path style="fill: none; fill-opacity:0; stroke-width: 2.6; stroke: #ffffff" d="M 161.969 312.566 C 122.969,312.566 130.769,304.766 130.769,343.766"/>
    <path style="fill: none; fill-opacity:0; stroke-width: 1.6; stroke: #000000" d="M 161.969 312.566 C 122.969,312.566 130.769,304.766 130.769,343.766"/>
    <polygon style="fill: #000000" points="155.06,316.22 162.86,312.32 155.06,308.42 "/>
    <polygon style="fill: none; fill-opacity:0; stroke-width: 2; stroke: #7f7f7f" points="155.06,316.22 162.86,312.32 155.06,308.42 "/>
    <polygon style="fill: #000000" points="126.2,337.28 130.1,345.08 134,337.28 "/>
    <polygon style="fill: none; fill-opacity:0; stroke-width: 2; stroke: #7f7f7f" points="126.2,337.28 130.1,345.08 134,337.28 "/>
  </g>
  <g>
    <rect style="fill: #9f9f9f" x="367" y="328" width="79.5" height="79.5"/>
    <rect style="fill: none; fill-opacity:0; stroke-width: 2; stroke: #7f7f7f" x="367" y="328" width="79.5" height="79.5"/>
    <rect style="fill: none; fill-opacity:0; stroke-width: 2; stroke: #7f7f7f" x="367" y="328" width="79.5" height="79.5"/>
    <path style="fill: none; fill-opacity:0; stroke-width: 2.6; stroke: #ffffff" d="M 411.669 340.869 C 411.669,380.619 419.619,372.669 379.869,372.669"/>
    <path style="fill: none; fill-opacity:0; stroke-width: 1.6; stroke: #000000" d="M 411.669 340.869 C 411.669,380.619 419.619,372.669 379.869,372.669"/>
    <polygon style="fill: #000000" points="415.495,347.08 411.52,339.13 407.545,347.08 "/>
    <polygon style="fill: none; fill-opacity:0; stroke-width: 2; stroke: #7f7f7f" points="415.495,347.08 411.52,339.13 407.545,347.08 "/>
    <polygon style="fill: #000000" points="386.08,368.545 378.13,372.52 386.08,376.495 "/>
    <polygon style="fill: none; fill-opacity:0; stroke-width: 2; stroke: #7f7f7f" points="386.08,368.545 378.13,372.52 386.08,376.495 "/>
    <path style="fill: none; fill-opacity:0; stroke-width: 2.6; stroke: #ffffff" d="M 435.257 363.231 C 395.507,363.231 403.457,355.281 403.457,395.031"/>
    <path style="fill: none; fill-opacity:0; stroke-width: 1.6; stroke: #000000" d="M 435.257 363.231 C 395.507,363.231 403.457,355.281 403.457,395.031"/>
    <polygon style="fill: #000000" points="428.215,366.955 436.165,362.98 428.215,359.005 "/>
    <polygon style="fill: none; fill-opacity:0; stroke-width: 2; stroke: #7f7f7f" points="428.215,366.955 436.165,362.98 428.215,359.005 "/>
    <polygon style="fill: #000000" points="398.8,388.42 402.775,396.37 406.75,388.42 "/>
    <polygon style="fill: none; fill-opacity:0; stroke-width: 2; stroke: #7f7f7f" points="398.8,388.42 402.775,396.37 406.75,388.42 "/>
  </g>
  <g>
    <rect style="fill: #b3b3b3" x="250.667" y="163" width="304.667" height="21.5059"/>
    <rect style="fill: none; fill-opacity:0; stroke-width: 1.6; stroke: #7f7f7f" x="250.667" y="163" width="304.667" height="21.5059"/>
    <rect style="fill: #7f7f7f" x="262.614" y="170.885" width="5.97386" height="5.7349"/>
    <rect style="fill: #7f7f7f" x="274.562" y="170.885" width="5.97386" height="5.7349"/>
    <rect style="fill: #7f7f7f" x="286.51" y="170.885" width="5.97386" height="5.7349"/>
    <rect style="fill: #7f7f7f" x="298.458" y="170.885" width="5.97386" height="5.7349"/>
    <rect style="fill: #7f7f7f" x="310.405" y="170.885" width="5.97386" height="5.7349"/>
    <rect style="fill: #7f7f7f" x="322.353" y="170.885" width="5.97386" height="5.7349"/>
    <rect style="fill: #7f7f7f" x="334.301" y="170.885" width="5.97386" height="5.7349"/>
    <rect style="fill: #7f7f7f" x="346.248" y="170.885" width="5.97386" height="5.7349"/>
    <rect style="fill: #7f7f7f" x="358.196" y="170.885" width="5.97386" height="5.7349"/>
    <rect style="fill: #7f7f7f" x="370.144" y="170.885" width="5.97386" height="5.7349"/>
    <rect style="fill: #7f7f7f" x="382.092" y="170.885" width="5.97386" height="5.7349"/>
    <rect style="fill: #7f7f7f" x="394.039" y="170.885" width="5.97386" height="5.7349"/>
    <rect style="fill: #7f7f7f" x="405.987" y="170.885" width="5.97386" height="5.7349"/>
    <rect style="fill: #7f7f7f" x="417.935" y="170.885" width="5.97386" height="5.7349"/>
    <rect style="fill: #7f7f7f" x="429.882" y="170.885" width="5.97386" height="5.7349"/>
    <rect style="fill: #7f7f7f" x="441.83" y="170.885" width="5.97386" height="5.7349"/>
    <rect style="fill: #7f7f7f" x="453.778" y="170.885" width="5.97386" height="5.7349"/>
    <rect style="fill: #7f7f7f" x="465.725" y="170.885" width="5.97386" height="5.7349"/>
    <rect style="fill: #7f7f7f" x="477.673" y="170.885" width="5.97386" height="5.7349"/>
    <rect style="fill: #7f7f7f" x="489.621" y="170.885" width="5.97386" height="5.7349"/>
    <rect style="fill: #7f7f7f" x="501.569" y="170.885" width="5.97386" height="5.7349"/>
    <rect style="fill: #7f7f7f" x="513.516" y="170.885" width="5.97386" height="5.7349"/>
    <rect style="fill: #7f7f7f" x="525.464" y="170.885" width="5.97386" height="5.7349"/>
    <rect style="fill: #7f7f7f" x="537.412" y="170.885" width="5.97386" height="5.7349"/>
  </g>
  <g>
    <rect style="fill: #9f9f9f" x="716" y="343" width="44.5" height="44.5"/>
    <rect style="fill: none; fill-opacity:0; stroke-width: 2; stroke: #7f7f7f" x="716" y="343" width="44.5" height="44.5"/>
    <rect style="fill: none; fill-opacity:0; stroke-width: 2; stroke: #7f7f7f" x="716" y="343" width="44.5" height="44.5"/>
    <path style="fill: none; fill-opacity:0; stroke-width: 2.6; stroke: #ffffff" d="M 741.003 350.203 C 741.003,372.453 745.453,368.003 723.203,368.003"/>
    <path style="fill: none; fill-opacity:0; stroke-width: 1.6; stroke: #000000" d="M 741.003 350.203 C 741.003,372.453 745.453,368.003 723.203,368.003"/>
    <polygon style="fill: #000000" points="743.145,353.68 740.92,349.23 738.695,353.68 "/>
    <polygon style="fill: none; fill-opacity:0; stroke-width: 2; stroke: #7f7f7f" points="743.145,353.68 740.92,349.23 738.695,353.68 "/>
    <polygon style="fill: #000000" points="726.68,365.695 722.23,367.92 726.68,370.145 "/>
    <polygon style="fill: none; fill-opacity:0; stroke-width: 2; stroke: #7f7f7f" points="726.68,365.695 722.23,367.92 726.68,370.145 "/>
    <path style="fill: none; fill-opacity:0; stroke-width: 2.6; stroke: #ffffff" d="M 754.207 362.72 C 731.957,362.72 736.407,358.27 736.407,380.52"/>
    <path style="fill: none; fill-opacity:0; stroke-width: 1.6; stroke: #000000" d="M 754.207 362.72 C 731.957,362.72 736.407,358.27 736.407,380.52"/>
    <polygon style="fill: #000000" points="750.265,364.805 754.715,362.58 750.265,360.355 "/>
    <polygon style="fill: none; fill-opacity:0; stroke-width: 2; stroke: #7f7f7f" points="750.265,364.805 754.715,362.58 750.265,360.355 "/>
    <polygon style="fill: #000000" points="733.8,376.82 736.025,381.27 738.25,376.82 "/>
    <polygon style="fill: none; fill-opacity:0; stroke-width: 2; stroke: #7f7f7f" points="733.8,376.82 736.025,381.27 738.25,376.82 "/>
  </g>
  <g>
    <rect style="fill: #b3b3b3" x="834.545" y="296" width="85.5" height="37.62"/>
    <rect style="fill: none; fill-opacity:0; stroke-width: 1.6; stroke: #7f7f7f" x="834.545" y="296" width="85.5" height="37.62"/>
    <rect style="fill: #7f7f7f" x="843.095" y="308.825" width="4.275" height="4.104"/>
    <rect style="fill: #7f7f7f" x="851.645" y="308.825" width="4.275" height="4.104"/>
    <rect style="fill: #7f7f7f" x="860.195" y="308.825" width="4.275" height="4.104"/>
    <rect style="fill: #7f7f7f" x="868.745" y="308.825" width="4.275" height="4.104"/>
    <rect style="fill: #7f7f7f" x="877.295" y="308.825" width="4.275" height="4.104"/>
    <rect style="fill: #7f7f7f" x="885.845" y="308.825" width="4.275" height="4.104"/>
    <rect style="fill: #7f7f7f" x="894.395" y="308.825" width="4.275" height="4.104"/>
    <rect style="fill: #7f7f7f" x="902.945" y="308.825" width="4.275" height="4.104"/>
    <text font-size="12.7998" style="fill: #7f7f7f;text-anchor:middle;font-family:sans-serif;font-style:normal;font-weight:normal" x="877.295" y="347.33">
      <tspan x="877.295" y="347.33">8-port</tspan>
      <tspan x="877.295" y="363.33">dumb switch</tspan>
    </text>
  </g>
  <g>
    <rect style="fill: #9f9f9f" x="973" y="408" width="51.5" height="51.5"/>
    <rect style="fill: none; fill-opacity:0; stroke-width: 2; stroke: #7f7f7f" x="973" y="408" width="51.5" height="51.5"/>
    <rect style="fill: none; fill-opacity:0; stroke-width: 2; stroke: #7f7f7f" x="973" y="408" width="51.5" height="51.5"/>
    <polyline style="fill: none; fill-opacity:0; stroke-width: 3; stroke: #ffffff" points="980.725,420.875 991.025,420.875 1006.48,446.625 1016.78,446.625 "/>
    <polyline style="fill: none; fill-opacity:0; stroke-width: 2; stroke: #000000" points="980.725,420.875 991.025,420.875 1006.48,446.625 1016.78,446.625 "/>
    <polyline style="fill: none; fill-opacity:0; stroke-width: 3; stroke: #ffffff" points="1016.78,420.875 1006.48,420.875 991.025,446.625 980.725,446.625 "/>
    <polyline style="fill: none; fill-opacity:0; stroke-width: 2; stroke: #000000" points="1016.78,420.875 1006.48,420.875 991.025,446.625 980.725,446.625 "/>
  </g>
  <g>
    <polygon style="fill: #7f7f7f" points="175,314 231.9,250.889 225.364,244.996 301.444,173.753 244.544,236.864 251.08,242.757 "/>
    <polygon style="fill: none; fill-opacity:0; stroke-width: 1.6; stroke: #7f7f7f" points="175,314 231.9,250.889 225.364,244.996 301.444,173.753 244.544,236.864 251.08,242.757 "/>
  </g>
  <g>
    <line style="fill: none; fill-opacity:0; stroke-width: 2; stroke: #7f7f7f" x1="373" y1="433.988" x2="792" y2="439.012"/>
    <line style="fill: none; fill-opacity:0; stroke-width: 2; stroke: #7f7f7f" x1="445.695" y1="434.86" x2="446.5" y2="367.75"/>
    <line style="fill: none; fill-opacity:0; stroke-width: 2; stroke: #7f7f7f" x1="462.011" y1="435.055" x2="461.461" y2="481"/>
    <line style="fill: none; fill-opacity:0; stroke-width: 2; stroke: #7f7f7f" x1="552.714" y1="436.143" x2="552.474" y2="456.141"/>
    <line style="fill: none; fill-opacity:0; stroke-width: 2; stroke: #7f7f7f" x1="612.286" y1="436.857" x2="612.526" y2="416.859"/>
    <line style="fill: none; fill-opacity:0; stroke-width: 2; stroke: #7f7f7f" x1="671.857" y1="437.571" x2="671.617" y2="457.57"/>
    <line style="fill: none; fill-opacity:0; stroke-width: 2; stroke: #7f7f7f" x1="737.64" y1="438.36" x2="738.25" y2="387.5"/>
  </g>
  <g>
    <polygon style="fill: #7f7f7f" points="373.131,173.753 388.259,243.164 396.858,241.29 406.75,328 391.621,258.589 383.023,260.463 "/>
    <polygon style="fill: none; fill-opacity:0; stroke-width: 1.6; stroke: #7f7f7f" points="373.131,173.753 388.259,243.164 396.858,241.29 406.75,328 391.621,258.589 383.023,260.463 "/>
  </g>
  <line style="fill: none; fill-opacity:0; stroke-width: 2; stroke: #000000" x1="760.5" y1="365.25" x2="845.233" y2="310.877"/>
  <line style="fill: none; fill-opacity:0; stroke-width: 2; stroke: #000000" x1="896.533" y1="310.877" x2="976.54" y2="407.052"/>
  <g>
    <rect style="fill: #d9d9cd" x="800" y="199" width="35" height="29.1667"/>
    <rect style="fill: none; fill-opacity:0; stroke-width: 2; stroke: #000000" x="800" y="199" width="35" height="29.1667"/>
    <rect style="fill: none; fill-opacity:0; stroke-width: 0.2; stroke: #000000" x="800" y="199" width="35" height="29.1667"/>
    <rect style="fill: #a1a1a1" x="801.944" y="200.944" width="31.1111" height="23.3333"/>
    <rect style="fill: none; fill-opacity:0; stroke-width: 2; stroke: #000000" x="801.944" y="200.944" width="31.1111" height="23.3333"/>
    <rect style="fill: none; fill-opacity:0; stroke-width: 0.2; stroke: #000000" x="801.944" y="200.944" width="31.1111" height="23.3333"/>
    <polygon style="fill: #d9d9cd" points="805.833,228.167 829.167,228.167 823.333,230.111 811.667,230.111 "/>
    <polygon style="fill: none; fill-opacity:0; stroke-width: 2; stroke: #000000" points="805.833,228.167 829.167,228.167 823.333,230.111 811.667,230.111 "/>
    <polygon style="fill: none; fill-opacity:0; stroke-width: 0.2; stroke: #000000" points="805.833,228.167 829.167,228.167 823.333,230.111 811.667,230.111 "/>
    <rect style="fill: #d9d9cd" x="811.667" y="230.111" width="11.6667" height="1.94444"/>
    <rect style="fill: none; fill-opacity:0; stroke-width: 2; stroke: #000000" x="811.667" y="230.111" width="11.6667" height="1.94444"/>
    <rect style="fill: none; fill-opacity:0; stroke-width: 0.2; stroke: #000000" x="811.667" y="230.111" width="11.6667" height="1.94444"/>
    <rect style="fill: #d9d9cd" x="805.833" y="232.056" width="23.3333" height="1.94444"/>
    <rect style="fill: none; fill-opacity:0; stroke-width: 2; stroke: #000000" x="805.833" y="232.056" width="23.3333" height="1.94444"/>
    <rect style="fill: none; fill-opacity:0; stroke-width: 0.2; stroke: #000000" x="805.833" y="232.056" width="23.3333" height="1.94444"/>
  </g>
  <g>
    <rect style="fill: #d9d9cd" x="856.4" y="199.9" width="35" height="29.1667"/>
    <rect style="fill: none; fill-opacity:0; stroke-width: 2; stroke: #000000" x="856.4" y="199.9" width="35" height="29.1667"/>
    <rect style="fill: none; fill-opacity:0; stroke-width: 0.2; stroke: #000000" x="856.4" y="199.9" width="35" height="29.1667"/>
    <rect style="fill: #a1a1a1" x="858.344" y="201.844" width="31.1111" height="23.3333"/>
    <rect style="fill: none; fill-opacity:0; stroke-width: 2; stroke: #000000" x="858.344" y="201.844" width="31.1111" height="23.3333"/>
    <rect style="fill: none; fill-opacity:0; stroke-width: 0.2; stroke: #000000" x="858.344" y="201.844" width="31.1111" height="23.3333"/>
    <polygon style="fill: #d9d9cd" points="862.233,229.067 885.567,229.067 879.733,231.011 868.067,231.011 "/>
    <polygon style="fill: none; fill-opacity:0; stroke-width: 2; stroke: #000000" points="862.233,229.067 885.567,229.067 879.733,231.011 868.067,231.011 "/>
    <polygon style="fill: none; fill-opacity:0; stroke-width: 0.2; stroke: #000000" points="862.233,229.067 885.567,229.067 879.733,231.011 868.067,231.011 "/>
    <rect style="fill: #d9d9cd" x="868.067" y="231.011" width="11.6667" height="1.94444"/>
    <rect style="fill: none; fill-opacity:0; stroke-width: 2; stroke: #000000" x="868.067" y="231.011" width="11.6667" height="1.94444"/>
    <rect style="fill: none; fill-opacity:0; stroke-width: 0.2; stroke: #000000" x="868.067" y="231.011" width="11.6667" height="1.94444"/>
    <rect style="fill: #d9d9cd" x="862.233" y="232.956" width="23.3333" height="1.94444"/>
    <rect style="fill: none; fill-opacity:0; stroke-width: 2; stroke: #000000" x="862.233" y="232.956" width="23.3333" height="1.94444"/>
    <rect style="fill: none; fill-opacity:0; stroke-width: 0.2; stroke: #000000" x="862.233" y="232.956" width="23.3333" height="1.94444"/>
  </g>
  <g>
    <rect style="fill: #d9d9cd" x="913.4" y="197.9" width="35" height="29.1667"/>
    <rect style="fill: none; fill-opacity:0; stroke-width: 2; stroke: #000000" x="913.4" y="197.9" width="35" height="29.1667"/>
    <rect style="fill: none; fill-opacity:0; stroke-width: 0.2; stroke: #000000" x="913.4" y="197.9" width="35" height="29.1667"/>
    <rect style="fill: #a1a1a1" x="915.344" y="199.844" width="31.1111" height="23.3333"/>
    <rect style="fill: none; fill-opacity:0; stroke-width: 2; stroke: #000000" x="915.344" y="199.844" width="31.1111" height="23.3333"/>
    <rect style="fill: none; fill-opacity:0; stroke-width: 0.2; stroke: #000000" x="915.344" y="199.844" width="31.1111" height="23.3333"/>
    <polygon style="fill: #d9d9cd" points="919.233,227.067 942.567,227.067 936.733,229.011 925.067,229.011 "/>
    <polygon style="fill: none; fill-opacity:0; stroke-width: 2; stroke: #000000" points="919.233,227.067 942.567,227.067 936.733,229.011 925.067,229.011 "/>
    <polygon style="fill: none; fill-opacity:0; stroke-width: 0.2; stroke: #000000" points="919.233,227.067 942.567,227.067 936.733,229.011 925.067,229.011 "/>
    <rect style="fill: #d9d9cd" x="925.067" y="229.011" width="11.6667" height="1.94444"/>
    <rect style="fill: none; fill-opacity:0; stroke-width: 2; stroke: #000000" x="925.067" y="229.011" width="11.6667" height="1.94444"/>
    <rect style="fill: none; fill-opacity:0; stroke-width: 0.2; stroke: #000000" x="925.067" y="229.011" width="11.6667" height="1.94444"/>
    <rect style="fill: #d9d9cd" x="919.233" y="230.956" width="23.3333" height="1.94444"/>
    <rect style="fill: none; fill-opacity:0; stroke-width: 2; stroke: #000000" x="919.233" y="230.956" width="23.3333" height="1.94444"/>
    <rect style="fill: none; fill-opacity:0; stroke-width: 0.2; stroke: #000000" x="919.233" y="230.956" width="23.3333" height="1.94444"/>
  </g>
  <line style="fill: none; fill-opacity:0; stroke-width: 2; stroke: #000000" x1="817.5" y1="234" x2="853.783" y2="310.877"/>
  <line style="fill: none; fill-opacity:0; stroke-width: 2; stroke: #000000" x1="930.9" y1="232.9" x2="870.883" y2="310.877"/>
  <line style="fill: none; fill-opacity:0; stroke-width: 2; stroke: #000000" x1="873.9" y1="234.9" x2="862.333" y2="310.877"/>
  <g>
    <rect style="fill: #b3b3b3" x="440.341" y="481" width="39.5993" height="92.3983"/>
    <rect style="fill: none; fill-opacity:0; stroke-width: 1.6; stroke: #000000" x="440.341" y="481" width="39.5993" height="92.3983"/>
    <rect style="fill: none; fill-opacity:0; stroke-width: 0.2; stroke: #000000" x="444.301" y="486.544" width="31.6794" height="10.5598"/>
    <rect style="fill: none; fill-opacity:0; stroke-width: 0.2; stroke: #000000" x="444.301" y="497.104" width="31.6794" height="10.5598"/>
    <rect style="fill: none; fill-opacity:0; stroke-width: 0.2; stroke: #000000" x="444.301" y="507.664" width="31.6794" height="10.5598"/>
    <rect style="fill: none; fill-opacity:0; stroke-width: 0.2; stroke: #000000" x="444.301" y="518.223" width="31.6794" height="10.5598"/>
    <rect style="fill: none; fill-opacity:0; stroke-width: 0.2; stroke: #000000" x="444.301" y="530.895" width="19.7996" height="6.33589"/>
    <ellipse style="fill: #00ff00" cx="474" cy="531.951" rx="1.38597" ry="1.38597"/>
    <ellipse style="fill: none; fill-opacity:0; stroke-width: 0.2; stroke: #000000" cx="474" cy="531.951" rx="1.38597" ry="1.38597"/>
    <ellipse style="fill: #ffff00" cx="474" cy="536.175" rx="1.38597" ry="1.38597"/>
    <ellipse style="fill: none; fill-opacity:0; stroke-width: 0.2; stroke: #000000" cx="474" cy="536.175" rx="1.38597" ry="1.38597"/>
    <rect style="fill: #ffffff" x="466.08" y="533.007" width="4.75191" height="4.22392"/>
    <rect style="fill: none; fill-opacity:0; stroke-width: 0.2; stroke: #000000" x="466.08" y="533.007" width="4.75191" height="4.22392"/>
    <path style="fill: none; fill-opacity:0; stroke-width: 0.2; stroke: #000000" d="M 446.941 545.679 L 446.941,568.778"/>
    <path style="fill: none; fill-opacity:0; stroke-width: 0.2; stroke: #000000" d="M 453.541 545.679 L 453.541,568.778"/>
    <path style="fill: none; fill-opacity:0; stroke-width: 0.2; stroke: #000000" d="M 460.141 545.679 L 460.141,568.778"/>
    <path style="fill: none; fill-opacity:0; stroke-width: 0.2; stroke: #000000" d="M 466.74 545.679 L 466.74,568.778"/>
    <path style="fill: none; fill-opacity:0; stroke-width: 0.2; stroke: #000000" d="M 473.34 545.679 L 473.34,568.778"/>
    <path style="fill: none; fill-opacity:0; stroke-width: 0.2; stroke: #000000" d="M 479.94 545.679 L 479.94,568.778"/>
    <polygon style="fill: #999999" points="432.421,581.318 440.341,565.478 440.341,573.398 479.94,573.398 479.94,565.478 490.5,581.318 "/>
    <polygon style="fill: none; fill-opacity:0; stroke-width: 0.2; stroke: #000000" points="432.421,581.318 440.341,565.478 440.341,573.398 479.94,573.398 479.94,565.478 490.5,581.318 "/>
    <text font-size="12.7998" style="fill: #000000;text-anchor:middle;font-family:sans-serif;font-style:normal;font-weight:normal" x="461.461" y="595.958">
      <tspan x="461.461" y="595.958">VMhost (supervisor)</tspan>
    </text>
  </g>
  <g>
    <rect style="fill: #d9d9cd" x="217" y="59" width="32.5" height="27.0833"/>
    <rect style="fill: none; fill-opacity:0; stroke-width: 2; stroke: #000000" x="217" y="59" width="32.5" height="27.0833"/>
    <rect style="fill: none; fill-opacity:0; stroke-width: 0.2; stroke: #000000" x="217" y="59" width="32.5" height="27.0833"/>
    <rect style="fill: #a1a1a1" x="218.806" y="60.8056" width="28.8889" height="21.6667"/>
    <rect style="fill: none; fill-opacity:0; stroke-width: 2; stroke: #000000" x="218.806" y="60.8056" width="28.8889" height="21.6667"/>
    <rect style="fill: none; fill-opacity:0; stroke-width: 0.2; stroke: #000000" x="218.806" y="60.8056" width="28.8889" height="21.6667"/>
    <polygon style="fill: #d9d9cd" points="222.417,86.0833 244.083,86.0833 238.667,87.8889 227.833,87.8889 "/>
    <polygon style="fill: none; fill-opacity:0; stroke-width: 2; stroke: #000000" points="222.417,86.0833 244.083,86.0833 238.667,87.8889 227.833,87.8889 "/>
    <polygon style="fill: none; fill-opacity:0; stroke-width: 0.2; stroke: #000000" points="222.417,86.0833 244.083,86.0833 238.667,87.8889 227.833,87.8889 "/>
    <rect style="fill: #d9d9cd" x="227.833" y="87.8889" width="10.8333" height="1.80556"/>
    <rect style="fill: none; fill-opacity:0; stroke-width: 2; stroke: #000000" x="227.833" y="87.8889" width="10.8333" height="1.80556"/>
    <rect style="fill: none; fill-opacity:0; stroke-width: 0.2; stroke: #000000" x="227.833" y="87.8889" width="10.8333" height="1.80556"/>
    <rect style="fill: #d9d9cd" x="222.417" y="89.6944" width="21.6667" height="1.80556"/>
    <rect style="fill: none; fill-opacity:0; stroke-width: 2; stroke: #000000" x="222.417" y="89.6944" width="21.6667" height="1.80556"/>
    <rect style="fill: none; fill-opacity:0; stroke-width: 0.2; stroke: #000000" x="222.417" y="89.6944" width="21.6667" height="1.80556"/>
  </g>
  <line style="fill: none; fill-opacity:0; stroke-width: 2; stroke: #000000" x1="277.549" y1="173.753" x2="233.25" y2="91.5"/>
  <polyline style="fill: none; fill-opacity:0; stroke-width: 10; stroke: #0000ff" points="131,274 131,233 426.625,233 426.625,327.036 "/>
  <polyline style="fill: none; fill-opacity:0; stroke-width: 10; stroke: #0000ff" points="249.5,75.25 249.5,101.9 450,101.9 450,366 "/>
  <text font-size="12.7998" style="fill: #0000ff;text-anchor:start;font-family:sans-serif;font-style:normal;font-weight:normal" x="218" y="50">
    <tspan x="218" y="50">NMS</tspan>
  </text>
  <g>
    <rect style="fill: #ffffff" x="546.667" y="157" width="39.8667" height="31.4737"/>
    <rect style="fill: none; fill-opacity:0; stroke-width: 1.6; stroke: #0000ff" x="546.667" y="157" width="39.8667" height="31.4737"/>
    <path style="fill: none; fill-opacity:0; stroke-width: 1.6; stroke: #0000ff" d="M 546.667 167.491 L 586.533,167.491"/>
    <path style="fill: none; fill-opacity:0; stroke-width: 1.6; stroke: #0000ff" d="M 546.667 177.982 L 586.533,177.982"/>
    <rect style="fill: #ff0000" x="551.052" y="161.092" width="3.98667" height="5.35053"/>
    <rect style="fill: none; fill-opacity:0; stroke-width: 1.6; stroke: #0000ff" x="551.052" y="161.092" width="3.98667" height="5.35053"/>
    <rect style="fill: #ff0000" x="557.032" y="161.092" width="3.98667" height="5.35053"/>
    <rect style="fill: none; fill-opacity:0; stroke-width: 1.6; stroke: #0000ff" x="557.032" y="161.092" width="3.98667" height="5.35053"/>
    <rect style="fill: #ff0000" x="571.783" y="161.092" width="3.98667" height="5.35053"/>
    <rect style="fill: none; fill-opacity:0; stroke-width: 1.6; stroke: #0000ff" x="571.783" y="161.092" width="3.98667" height="5.35053"/>
    <rect style="fill: #ff0000" x="578.161" y="161.092" width="3.98667" height="5.35053"/>
    <rect style="fill: none; fill-opacity:0; stroke-width: 1.6; stroke: #0000ff" x="578.161" y="161.092" width="3.98667" height="5.35053"/>
    <rect style="fill: #ffff00" x="551.052" y="171.478" width="5.98" height="2.20316"/>
    <rect style="fill: none; fill-opacity:0; stroke-width: 1.6; stroke: #0000ff" x="551.052" y="171.478" width="5.98" height="2.20316"/>
    <rect style="fill: #ffff00" x="563.411" y="171.478" width="5.98" height="2.20316"/>
    <rect style="fill: none; fill-opacity:0; stroke-width: 1.6; stroke: #0000ff" x="563.411" y="171.478" width="5.98" height="2.20316"/>
    <rect style="fill: #ffff00" x="576.168" y="171.478" width="5.98" height="2.20316"/>
    <rect style="fill: none; fill-opacity:0; stroke-width: 1.6; stroke: #0000ff" x="576.168" y="171.478" width="5.98" height="2.20316"/>
    <rect style="fill: #0000ff" x="551.052" y="182.179" width="1.99333" height="2.20316"/>
    <rect style="fill: #0000ff" x="555.039" y="182.179" width="1.99333" height="2.20316"/>
    <rect style="fill: #0000ff" x="559.424" y="182.179" width="1.99333" height="2.20316"/>
    <rect style="fill: #0000ff" x="563.411" y="182.179" width="1.99333" height="2.20316"/>
    <rect style="fill: #0000ff" x="567.796" y="182.179" width="1.99333" height="2.20316"/>
    <rect style="fill: #0000ff" x="571.783" y="182.179" width="1.99333" height="2.20316"/>
    <rect style="fill: #0000ff" x="576.168" y="182.179" width="1.99333" height="2.20316"/>
    <rect style="fill: #0000ff" x="580.155" y="182.179" width="1.99333" height="2.20316"/>
    <text font-size="12.7998" style="fill: #0000ff;text-anchor:middle;font-family:sans-serif;font-style:normal;font-weight:normal" x="566.6" y="203.831">
      <tspan x="566.6" y="203.831">switch</tspan>
      <tspan x="566.6" y="219.831">mgmt</tspan>
    </text>
  </g>
  <polyline style="fill: none; fill-opacity:0; stroke-width: 10; stroke: #0000ff" points="566.6,223.92 566.6,274 446.5,274 446.5,367.75 "/>
  <polyline style="fill: none; fill-opacity:0; stroke-width: 10; stroke: #0000ff" points="749.375,388.503 749.375,496 461.461,496 461.461,531.159 "/>
  <polyline style="fill: none; fill-opacity:0; stroke-width: 10; stroke: #0000ff" points="716,365.25 716,385 446.5,385 446.5,367.75 "/>
  <polyline style="fill: none; fill-opacity:0; stroke-width: 10; stroke-dasharray: 20; stroke: #0000ff" points="461.461,480.285 461.461,428 446.5,428 446.5,367.75 "/>
  <polyline style="fill: none; fill-opacity:0; stroke-width: 10; stroke: #0000ff" points="973,433.75 973,412 749.375,412 749.375,388.499 "/>
  <polyline style="fill: none; fill-opacity:0; stroke-width: 10; stroke: #0000ff" points="333.025,558.151 333.025,536.401 109.4,536.401 109.4,512.9 "/>
  <text font-size="12.7998" style="fill: #0000ff;text-anchor:start;font-family:sans-serif;font-style:normal;font-weight:normal" x="127" y="525">
    <tspan x="127" y="525">ACP tunnels</tspan>
  </text>
  <polyline style="fill: none; fill-opacity:0; stroke-width: 10; stroke-dasharray: 20; stroke: #0000ff" points="319,595 319,597.401 109,597.401 109,595 "/>
  <text font-size="12.7998" style="fill: #0000ff;text-anchor:start;font-family:sans-serif;font-style:normal;font-weight:normal" x="124.4" y="580.8">
    <tspan x="124.4" y="580.8">backup ACP tunnels</tspan>
  </text>
  <polyline style="fill: none; fill-opacity:0; stroke-width: 10; stroke-dasharray: 20; stroke: #0000ff" points="217,75.25 217,104.301 95,104.301 95,317 "/>
</svg>
