<?xml version="1.0" encoding="UTF-8" standalone="no"?>
<!DOCTYPE svg PUBLIC "-//W3C//DTD SVG 1.0//EN" "http://www.w3.org/TR/2001/PR-SVG-20010719/DTD/svg10.dtd">
<svg width="17cm" height="23cm" viewBox="23 1 329 456" xmlns="http://www.w3.org/2000/svg" xmlns:xlink="http://www.w3.org/1999/xlink">
  <g>
    <rect style="fill: #ffffff" x="101" y="60" width="230" height="396"/>
    <rect style="fill: none; fill-opacity:0; stroke-width: 2; stroke: #000000" x="101" y="60" width="230" height="396"/>
  </g>
  <g>
    <line style="fill: none; fill-opacity:0; stroke-width: 2; stroke: #7f7f7f" x1="351" y1="81" x2="351" y2="449"/>
    <line style="fill: none; fill-opacity:0; stroke-width: 2; stroke: #7f7f7f" x1="351" y1="210.988" x2="316.3" y2="210.988"/>
    <line style="fill: none; fill-opacity:0; stroke-width: 2; stroke: #7f7f7f" x1="351" y1="421" x2="69" y2="421"/>
    <line style="fill: none; fill-opacity:0; stroke-width: 2; stroke: #7f7f7f" x1="351" y1="268.088" x2="317.9" y2="268.088"/>
    <line style="fill: none; fill-opacity:0; stroke-width: 2; stroke: #7f7f7f" x1="351" y1="119.25" x2="290.5" y2="119.25"/>
    <line style="fill: none; fill-opacity:0; stroke-width: 2; stroke: #7f7f7f" x1="351" y1="324.188" x2="317.5" y2="324.188"/>
    <line style="fill: none; fill-opacity:0; stroke-width: 2; stroke: #7f7f7f" x1="351" y1="378.088" x2="316.9" y2="378.088"/>
  </g>
  <g>
    <rect style="fill: #d9d9cd" x="164" y="305" width="153.5" height="38.375"/>
    <rect style="fill: none; fill-opacity:0; stroke-width: 2; stroke: #7f7f7f" x="164" y="305" width="153.5" height="38.375"/>
    <rect style="fill: none; fill-opacity:0; stroke-width: 0.2; stroke: #000000" x="164" y="305" width="153.5" height="38.375"/>
    <line style="fill: none; fill-opacity:0; stroke-width: 0.2; stroke: #000000" x1="190.863" y1="320.35" x2="187.025" y2="324.188"/>
    <line style="fill: none; fill-opacity:0; stroke-width: 0.2; stroke: #000000" x1="187.025" y1="324.188" x2="190.863" y2="328.025"/>
    <line style="fill: none; fill-opacity:0; stroke-width: 0.2; stroke: #000000" x1="206.213" y1="320.35" x2="202.375" y2="324.188"/>
    <line style="fill: none; fill-opacity:0; stroke-width: 0.2; stroke: #000000" x1="202.375" y1="324.188" x2="206.213" y2="328.025"/>
    <line style="fill: none; fill-opacity:0; stroke-width: 0.2; stroke: #000000" x1="221.562" y1="320.35" x2="217.725" y2="324.188"/>
    <line style="fill: none; fill-opacity:0; stroke-width: 0.2; stroke: #000000" x1="217.725" y1="324.188" x2="221.562" y2="328.025"/>
    <line style="fill: none; fill-opacity:0; stroke-width: 0.2; stroke: #000000" x1="236.913" y1="320.35" x2="233.075" y2="324.188"/>
    <line style="fill: none; fill-opacity:0; stroke-width: 0.2; stroke: #000000" x1="233.075" y1="324.188" x2="236.913" y2="328.025"/>
    <line style="fill: none; fill-opacity:0; stroke-width: 0.2; stroke: #000000" x1="252.263" y1="320.35" x2="248.425" y2="324.188"/>
    <line style="fill: none; fill-opacity:0; stroke-width: 0.2; stroke: #000000" x1="248.425" y1="324.188" x2="252.263" y2="328.025"/>
    <line style="fill: none; fill-opacity:0; stroke-width: 0.2; stroke: #000000" x1="267.613" y1="320.35" x2="263.775" y2="324.188"/>
    <line style="fill: none; fill-opacity:0; stroke-width: 0.2; stroke: #000000" x1="263.775" y1="324.188" x2="267.613" y2="328.025"/>
    <line style="fill: none; fill-opacity:0; stroke-width: 0.2; stroke: #000000" x1="282.963" y1="320.35" x2="279.125" y2="324.188"/>
    <line style="fill: none; fill-opacity:0; stroke-width: 0.2; stroke: #000000" x1="279.125" y1="324.188" x2="282.963" y2="328.025"/>
    <line style="fill: none; fill-opacity:0; stroke-width: 0.2; stroke: #000000" x1="298.313" y1="320.35" x2="294.475" y2="324.188"/>
    <line style="fill: none; fill-opacity:0; stroke-width: 0.2; stroke: #000000" x1="294.475" y1="324.188" x2="298.313" y2="328.025"/>
    <line style="fill: none; fill-opacity:0; stroke-width: 0.2; stroke: #000000" x1="305.988" y1="331.863" x2="302.15" y2="335.7"/>
    <line style="fill: none; fill-opacity:0; stroke-width: 0.2; stroke: #000000" x1="302.15" y1="335.7" x2="305.988" y2="339.538"/>
    <line style="fill: none; fill-opacity:0; stroke-width: 0.2; stroke: #000000" x1="290.638" y1="331.863" x2="286.8" y2="335.7"/>
    <line style="fill: none; fill-opacity:0; stroke-width: 0.2; stroke: #000000" x1="286.8" y1="335.7" x2="290.638" y2="339.538"/>
    <line style="fill: none; fill-opacity:0; stroke-width: 0.2; stroke: #000000" x1="275.288" y1="331.863" x2="271.45" y2="335.7"/>
    <line style="fill: none; fill-opacity:0; stroke-width: 0.2; stroke: #000000" x1="271.45" y1="335.7" x2="275.288" y2="339.538"/>
    <line style="fill: none; fill-opacity:0; stroke-width: 0.2; stroke: #000000" x1="259.938" y1="331.863" x2="256.1" y2="335.7"/>
    <line style="fill: none; fill-opacity:0; stroke-width: 0.2; stroke: #000000" x1="256.1" y1="335.7" x2="259.938" y2="339.538"/>
    <line style="fill: none; fill-opacity:0; stroke-width: 0.2; stroke: #000000" x1="244.588" y1="331.863" x2="240.75" y2="335.7"/>
    <line style="fill: none; fill-opacity:0; stroke-width: 0.2; stroke: #000000" x1="240.75" y1="335.7" x2="244.588" y2="339.538"/>
    <line style="fill: none; fill-opacity:0; stroke-width: 0.2; stroke: #000000" x1="229.238" y1="331.863" x2="225.4" y2="335.7"/>
    <line style="fill: none; fill-opacity:0; stroke-width: 0.2; stroke: #000000" x1="225.4" y1="335.7" x2="229.238" y2="339.538"/>
    <line style="fill: none; fill-opacity:0; stroke-width: 0.2; stroke: #000000" x1="213.888" y1="331.863" x2="210.05" y2="335.7"/>
    <line style="fill: none; fill-opacity:0; stroke-width: 0.2; stroke: #000000" x1="210.05" y1="335.7" x2="213.888" y2="339.538"/>
    <rect style="fill: #d9d9cd" x="190.863" y="335.7" width="15.35" height="3.8375"/>
    <rect style="fill: none; fill-opacity:0; stroke-width: 2; stroke: #7f7f7f" x="190.863" y="335.7" width="15.35" height="3.8375"/>
    <rect style="fill: none; fill-opacity:0; stroke-width: 0.2; stroke: #000000" x="190.863" y="335.7" width="15.35" height="3.8375"/>
    <polygon style="fill: #cdcdcd" points="175.512,324.188 183.188,331.863 175.512,339.538 167.837,331.863 "/>
    <polygon style="fill: none; fill-opacity:0; stroke-width: 2; stroke: #7f7f7f" points="175.512,324.188 183.188,331.863 175.512,339.538 167.837,331.863 "/>
    <polygon style="fill: none; fill-opacity:0; stroke-width: 0.2; stroke: #000000" points="175.512,324.188 183.188,331.863 175.512,339.538 167.837,331.863 "/>
    <rect style="fill: #d9d9cd" x="164" y="312.675" width="153.5" height="3.8375"/>
    <rect style="fill: none; fill-opacity:0; stroke-width: 2; stroke: #7f7f7f" x="164" y="312.675" width="153.5" height="3.8375"/>
    <rect style="fill: none; fill-opacity:0; stroke-width: 0.2; stroke: #000000" x="164" y="312.675" width="153.5" height="3.8375"/>
    <rect style="fill: #cdcdcd" x="183.188" y="312.675" width="34.5375" height="3.8375"/>
    <rect style="fill: none; fill-opacity:0; stroke-width: 2; stroke: #7f7f7f" x="183.188" y="312.675" width="34.5375" height="3.8375"/>
    <rect style="fill: none; fill-opacity:0; stroke-width: 0.2; stroke: #000000" x="183.188" y="312.675" width="34.5375" height="3.8375"/>
  </g>
  <g>
    <rect style="fill: #d9d9cd" x="164.4" y="248.9" width="153.5" height="38.375"/>
    <rect style="fill: none; fill-opacity:0; stroke-width: 2; stroke: #7f7f7f" x="164.4" y="248.9" width="153.5" height="38.375"/>
    <rect style="fill: none; fill-opacity:0; stroke-width: 0.2; stroke: #000000" x="164.4" y="248.9" width="153.5" height="38.375"/>
    <line style="fill: none; fill-opacity:0; stroke-width: 0.2; stroke: #000000" x1="191.263" y1="264.25" x2="187.425" y2="268.088"/>
    <line style="fill: none; fill-opacity:0; stroke-width: 0.2; stroke: #000000" x1="187.425" y1="268.088" x2="191.263" y2="271.925"/>
    <line style="fill: none; fill-opacity:0; stroke-width: 0.2; stroke: #000000" x1="206.613" y1="264.25" x2="202.775" y2="268.088"/>
    <line style="fill: none; fill-opacity:0; stroke-width: 0.2; stroke: #000000" x1="202.775" y1="268.088" x2="206.613" y2="271.925"/>
    <line style="fill: none; fill-opacity:0; stroke-width: 0.2; stroke: #000000" x1="221.963" y1="264.25" x2="218.125" y2="268.088"/>
    <line style="fill: none; fill-opacity:0; stroke-width: 0.2; stroke: #000000" x1="218.125" y1="268.088" x2="221.963" y2="271.925"/>
    <line style="fill: none; fill-opacity:0; stroke-width: 0.2; stroke: #000000" x1="237.313" y1="264.25" x2="233.475" y2="268.088"/>
    <line style="fill: none; fill-opacity:0; stroke-width: 0.2; stroke: #000000" x1="233.475" y1="268.088" x2="237.313" y2="271.925"/>
    <line style="fill: none; fill-opacity:0; stroke-width: 0.2; stroke: #000000" x1="252.663" y1="264.25" x2="248.825" y2="268.088"/>
    <line style="fill: none; fill-opacity:0; stroke-width: 0.2; stroke: #000000" x1="248.825" y1="268.088" x2="252.663" y2="271.925"/>
    <line style="fill: none; fill-opacity:0; stroke-width: 0.2; stroke: #000000" x1="268.013" y1="264.25" x2="264.175" y2="268.088"/>
    <line style="fill: none; fill-opacity:0; stroke-width: 0.2; stroke: #000000" x1="264.175" y1="268.088" x2="268.013" y2="271.925"/>
    <line style="fill: none; fill-opacity:0; stroke-width: 0.2; stroke: #000000" x1="283.363" y1="264.25" x2="279.525" y2="268.088"/>
    <line style="fill: none; fill-opacity:0; stroke-width: 0.2; stroke: #000000" x1="279.525" y1="268.088" x2="283.363" y2="271.925"/>
    <line style="fill: none; fill-opacity:0; stroke-width: 0.2; stroke: #000000" x1="298.713" y1="264.25" x2="294.875" y2="268.088"/>
    <line style="fill: none; fill-opacity:0; stroke-width: 0.2; stroke: #000000" x1="294.875" y1="268.088" x2="298.713" y2="271.925"/>
    <line style="fill: none; fill-opacity:0; stroke-width: 0.2; stroke: #000000" x1="306.388" y1="275.763" x2="302.55" y2="279.6"/>
    <line style="fill: none; fill-opacity:0; stroke-width: 0.2; stroke: #000000" x1="302.55" y1="279.6" x2="306.388" y2="283.438"/>
    <line style="fill: none; fill-opacity:0; stroke-width: 0.2; stroke: #000000" x1="291.038" y1="275.763" x2="287.2" y2="279.6"/>
    <line style="fill: none; fill-opacity:0; stroke-width: 0.2; stroke: #000000" x1="287.2" y1="279.6" x2="291.038" y2="283.438"/>
    <line style="fill: none; fill-opacity:0; stroke-width: 0.2; stroke: #000000" x1="275.688" y1="275.763" x2="271.85" y2="279.6"/>
    <line style="fill: none; fill-opacity:0; stroke-width: 0.2; stroke: #000000" x1="271.85" y1="279.6" x2="275.688" y2="283.438"/>
    <line style="fill: none; fill-opacity:0; stroke-width: 0.2; stroke: #000000" x1="260.338" y1="275.763" x2="256.5" y2="279.6"/>
    <line style="fill: none; fill-opacity:0; stroke-width: 0.2; stroke: #000000" x1="256.5" y1="279.6" x2="260.338" y2="283.438"/>
    <line style="fill: none; fill-opacity:0; stroke-width: 0.2; stroke: #000000" x1="244.988" y1="275.763" x2="241.15" y2="279.6"/>
    <line style="fill: none; fill-opacity:0; stroke-width: 0.2; stroke: #000000" x1="241.15" y1="279.6" x2="244.988" y2="283.438"/>
    <line style="fill: none; fill-opacity:0; stroke-width: 0.2; stroke: #000000" x1="229.638" y1="275.763" x2="225.8" y2="279.6"/>
    <line style="fill: none; fill-opacity:0; stroke-width: 0.2; stroke: #000000" x1="225.8" y1="279.6" x2="229.638" y2="283.438"/>
    <line style="fill: none; fill-opacity:0; stroke-width: 0.2; stroke: #000000" x1="214.288" y1="275.763" x2="210.45" y2="279.6"/>
    <line style="fill: none; fill-opacity:0; stroke-width: 0.2; stroke: #000000" x1="210.45" y1="279.6" x2="214.288" y2="283.438"/>
    <rect style="fill: #d9d9cd" x="191.263" y="279.6" width="15.35" height="3.8375"/>
    <rect style="fill: none; fill-opacity:0; stroke-width: 2; stroke: #7f7f7f" x="191.263" y="279.6" width="15.35" height="3.8375"/>
    <rect style="fill: none; fill-opacity:0; stroke-width: 0.2; stroke: #000000" x="191.263" y="279.6" width="15.35" height="3.8375"/>
    <polygon style="fill: #cdcdcd" points="175.913,268.088 183.588,275.763 175.913,283.438 168.238,275.763 "/>
    <polygon style="fill: none; fill-opacity:0; stroke-width: 2; stroke: #7f7f7f" points="175.913,268.088 183.588,275.763 175.913,283.438 168.238,275.763 "/>
    <polygon style="fill: none; fill-opacity:0; stroke-width: 0.2; stroke: #000000" points="175.913,268.088 183.588,275.763 175.913,283.438 168.238,275.763 "/>
    <rect style="fill: #d9d9cd" x="164.4" y="256.575" width="153.5" height="3.8375"/>
    <rect style="fill: none; fill-opacity:0; stroke-width: 2; stroke: #7f7f7f" x="164.4" y="256.575" width="153.5" height="3.8375"/>
    <rect style="fill: none; fill-opacity:0; stroke-width: 0.2; stroke: #000000" x="164.4" y="256.575" width="153.5" height="3.8375"/>
    <rect style="fill: #cdcdcd" x="183.588" y="256.575" width="34.5375" height="3.8375"/>
    <rect style="fill: none; fill-opacity:0; stroke-width: 2; stroke: #7f7f7f" x="183.588" y="256.575" width="34.5375" height="3.8375"/>
    <rect style="fill: none; fill-opacity:0; stroke-width: 0.2; stroke: #000000" x="183.588" y="256.575" width="34.5375" height="3.8375"/>
  </g>
  <g>
    <rect style="fill: #d9d9cd" x="162.8" y="191.8" width="153.5" height="38.375"/>
    <rect style="fill: none; fill-opacity:0; stroke-width: 2; stroke: #7f7f7f" x="162.8" y="191.8" width="153.5" height="38.375"/>
    <rect style="fill: none; fill-opacity:0; stroke-width: 0.2; stroke: #000000" x="162.8" y="191.8" width="153.5" height="38.375"/>
    <line style="fill: none; fill-opacity:0; stroke-width: 0.2; stroke: #000000" x1="189.663" y1="207.15" x2="185.825" y2="210.988"/>
    <line style="fill: none; fill-opacity:0; stroke-width: 0.2; stroke: #000000" x1="185.825" y1="210.988" x2="189.663" y2="214.825"/>
    <line style="fill: none; fill-opacity:0; stroke-width: 0.2; stroke: #000000" x1="205.013" y1="207.15" x2="201.175" y2="210.988"/>
    <line style="fill: none; fill-opacity:0; stroke-width: 0.2; stroke: #000000" x1="201.175" y1="210.988" x2="205.013" y2="214.825"/>
    <line style="fill: none; fill-opacity:0; stroke-width: 0.2; stroke: #000000" x1="220.363" y1="207.15" x2="216.525" y2="210.988"/>
    <line style="fill: none; fill-opacity:0; stroke-width: 0.2; stroke: #000000" x1="216.525" y1="210.988" x2="220.363" y2="214.825"/>
    <line style="fill: none; fill-opacity:0; stroke-width: 0.2; stroke: #000000" x1="235.713" y1="207.15" x2="231.875" y2="210.988"/>
    <line style="fill: none; fill-opacity:0; stroke-width: 0.2; stroke: #000000" x1="231.875" y1="210.988" x2="235.713" y2="214.825"/>
    <line style="fill: none; fill-opacity:0; stroke-width: 0.2; stroke: #000000" x1="251.063" y1="207.15" x2="247.225" y2="210.988"/>
    <line style="fill: none; fill-opacity:0; stroke-width: 0.2; stroke: #000000" x1="247.225" y1="210.988" x2="251.063" y2="214.825"/>
    <line style="fill: none; fill-opacity:0; stroke-width: 0.2; stroke: #000000" x1="266.413" y1="207.15" x2="262.575" y2="210.988"/>
    <line style="fill: none; fill-opacity:0; stroke-width: 0.2; stroke: #000000" x1="262.575" y1="210.988" x2="266.413" y2="214.825"/>
    <line style="fill: none; fill-opacity:0; stroke-width: 0.2; stroke: #000000" x1="281.763" y1="207.15" x2="277.925" y2="210.988"/>
    <line style="fill: none; fill-opacity:0; stroke-width: 0.2; stroke: #000000" x1="277.925" y1="210.988" x2="281.763" y2="214.825"/>
    <line style="fill: none; fill-opacity:0; stroke-width: 0.2; stroke: #000000" x1="297.113" y1="207.15" x2="293.275" y2="210.988"/>
    <line style="fill: none; fill-opacity:0; stroke-width: 0.2; stroke: #000000" x1="293.275" y1="210.988" x2="297.113" y2="214.825"/>
    <line style="fill: none; fill-opacity:0; stroke-width: 0.2; stroke: #000000" x1="304.788" y1="218.663" x2="300.95" y2="222.5"/>
    <line style="fill: none; fill-opacity:0; stroke-width: 0.2; stroke: #000000" x1="300.95" y1="222.5" x2="304.788" y2="226.338"/>
    <line style="fill: none; fill-opacity:0; stroke-width: 0.2; stroke: #000000" x1="289.438" y1="218.663" x2="285.6" y2="222.5"/>
    <line style="fill: none; fill-opacity:0; stroke-width: 0.2; stroke: #000000" x1="285.6" y1="222.5" x2="289.438" y2="226.338"/>
    <line style="fill: none; fill-opacity:0; stroke-width: 0.2; stroke: #000000" x1="274.088" y1="218.663" x2="270.25" y2="222.5"/>
    <line style="fill: none; fill-opacity:0; stroke-width: 0.2; stroke: #000000" x1="270.25" y1="222.5" x2="274.088" y2="226.338"/>
    <line style="fill: none; fill-opacity:0; stroke-width: 0.2; stroke: #000000" x1="258.738" y1="218.663" x2="254.9" y2="222.5"/>
    <line style="fill: none; fill-opacity:0; stroke-width: 0.2; stroke: #000000" x1="254.9" y1="222.5" x2="258.738" y2="226.338"/>
    <line style="fill: none; fill-opacity:0; stroke-width: 0.2; stroke: #000000" x1="243.388" y1="218.663" x2="239.55" y2="222.5"/>
    <line style="fill: none; fill-opacity:0; stroke-width: 0.2; stroke: #000000" x1="239.55" y1="222.5" x2="243.388" y2="226.338"/>
    <line style="fill: none; fill-opacity:0; stroke-width: 0.2; stroke: #000000" x1="228.038" y1="218.663" x2="224.2" y2="222.5"/>
    <line style="fill: none; fill-opacity:0; stroke-width: 0.2; stroke: #000000" x1="224.2" y1="222.5" x2="228.038" y2="226.338"/>
    <line style="fill: none; fill-opacity:0; stroke-width: 0.2; stroke: #000000" x1="212.688" y1="218.663" x2="208.85" y2="222.5"/>
    <line style="fill: none; fill-opacity:0; stroke-width: 0.2; stroke: #000000" x1="208.85" y1="222.5" x2="212.688" y2="226.338"/>
    <rect style="fill: #d9d9cd" x="189.663" y="222.5" width="15.35" height="3.8375"/>
    <rect style="fill: none; fill-opacity:0; stroke-width: 2; stroke: #7f7f7f" x="189.663" y="222.5" width="15.35" height="3.8375"/>
    <rect style="fill: none; fill-opacity:0; stroke-width: 0.2; stroke: #000000" x="189.663" y="222.5" width="15.35" height="3.8375"/>
    <polygon style="fill: #cdcdcd" points="174.313,210.988 181.988,218.663 174.313,226.338 166.637,218.663 "/>
    <polygon style="fill: none; fill-opacity:0; stroke-width: 2; stroke: #7f7f7f" points="174.313,210.988 181.988,218.663 174.313,226.338 166.637,218.663 "/>
    <polygon style="fill: none; fill-opacity:0; stroke-width: 0.2; stroke: #000000" points="174.313,210.988 181.988,218.663 174.313,226.338 166.637,218.663 "/>
    <rect style="fill: #d9d9cd" x="162.8" y="199.475" width="153.5" height="3.8375"/>
    <rect style="fill: none; fill-opacity:0; stroke-width: 2; stroke: #7f7f7f" x="162.8" y="199.475" width="153.5" height="3.8375"/>
    <rect style="fill: none; fill-opacity:0; stroke-width: 0.2; stroke: #000000" x="162.8" y="199.475" width="153.5" height="3.8375"/>
    <rect style="fill: #cdcdcd" x="181.988" y="199.475" width="34.5375" height="3.8375"/>
    <rect style="fill: none; fill-opacity:0; stroke-width: 2; stroke: #7f7f7f" x="181.988" y="199.475" width="34.5375" height="3.8375"/>
    <rect style="fill: none; fill-opacity:0; stroke-width: 0.2; stroke: #000000" x="181.988" y="199.475" width="34.5375" height="3.8375"/>
  </g>
  <g>
    <rect style="fill: #9f9f9f" x="232" y="90" width="58.5" height="58.5"/>
    <rect style="fill: none; fill-opacity:0; stroke-width: 2; stroke: #7f7f7f" x="232" y="90" width="58.5" height="58.5"/>
    <rect style="fill: none; fill-opacity:0; stroke-width: 2; stroke: #7f7f7f" x="232" y="90" width="58.5" height="58.5"/>
    <path style="fill: none; fill-opacity:0; stroke-width: 2.6; stroke: #ffffff" d="M 264.87 99.4695 C 264.87,128.72 270.72,122.87 241.47,122.87"/>
    <path style="fill: none; fill-opacity:0; stroke-width: 1.6; stroke: #000000" d="M 264.87 99.4695 C 264.87,128.72 270.72,122.87 241.47,122.87"/>
    <polygon style="fill: #000000" points="267.685,104.04 264.76,98.19 261.835,104.04 "/>
    <polygon style="fill: none; fill-opacity:0; stroke-width: 2; stroke: #7f7f7f" points="267.685,104.04 264.76,98.19 261.835,104.04 "/>
    <polygon style="fill: #000000" points="246.04,119.835 240.19,122.76 246.04,125.685 "/>
    <polygon style="fill: none; fill-opacity:0; stroke-width: 2; stroke: #7f7f7f" points="246.04,119.835 240.19,122.76 246.04,125.685 "/>
    <path style="fill: none; fill-opacity:0; stroke-width: 2.6; stroke: #ffffff" d="M 282.227 115.924 C 252.977,115.924 258.827,110.074 258.827,139.324"/>
    <path style="fill: none; fill-opacity:0; stroke-width: 1.6; stroke: #000000" d="M 282.227 115.924 C 252.977,115.924 258.827,110.074 258.827,139.324"/>
    <polygon style="fill: #000000" points="277.045,118.665 282.895,115.74 277.045,112.815 "/>
    <polygon style="fill: none; fill-opacity:0; stroke-width: 2; stroke: #7f7f7f" points="277.045,118.665 282.895,115.74 277.045,112.815 "/>
    <polygon style="fill: #000000" points="255.4,134.46 258.325,140.31 261.25,134.46 "/>
    <polygon style="fill: none; fill-opacity:0; stroke-width: 2; stroke: #7f7f7f" points="255.4,134.46 258.325,140.31 261.25,134.46 "/>
  </g>
  <g>
    <line style="fill: none; fill-opacity:0; stroke-width: 2; stroke: #7f7f7f" x1="130.4" y1="212.728" x2="151.378" y2="209.487"/>
    <polygon style="fill: #7f7f7f" points="158.79,208.341 149.671,214.81 151.378,209.487 148.144,204.927 "/>
    <polygon style="fill: none; fill-opacity:0; stroke-width: 2; stroke: #7f7f7f" points="158.79,208.341 149.671,214.81 151.378,209.487 148.144,204.927 "/>
  </g>
  <g>
    <line style="fill: none; fill-opacity:0; stroke-width: 2; stroke: #7f7f7f" x1="129.4" y1="272.728" x2="154.748" y2="269.368"/>
    <polygon style="fill: #7f7f7f" points="162.183,268.382 152.927,274.653 154.748,269.368 151.613,264.739 "/>
    <polygon style="fill: none; fill-opacity:0; stroke-width: 2; stroke: #7f7f7f" points="162.183,268.382 152.927,274.653 154.748,269.368 151.613,264.739 "/>
  </g>
  <g>
    <line style="fill: none; fill-opacity:0; stroke-width: 2; stroke: #7f7f7f" x1="130.4" y1="329.728" x2="154.394" y2="325.772"/>
    <polygon style="fill: #7f7f7f" points="161.794,324.552 152.74,331.112 154.394,325.772 151.114,321.245 "/>
    <polygon style="fill: none; fill-opacity:0; stroke-width: 2; stroke: #7f7f7f" points="161.794,324.552 152.74,331.112 154.394,325.772 151.114,321.245 "/>
  </g>
  <g>
    <path style="fill: none; fill-opacity:0; stroke-width: 2; stroke: #7f7f7f" d="M 155,117.827 A 337.072,337.072 0 0 0 222.299,120.043"/>
    <polygon style="fill: #7f7f7f" points="229.774,119.464 220.3,125.4 222.309,120.183 219.341,115.446 "/>
    <polygon style="fill: none; fill-opacity:0; stroke-width: 2; stroke: #7f7f7f" points="229.774,119.464 220.3,125.4 222.309,120.183 219.341,115.446 "/>
  </g>
  <image x="86" y="100" width="69" height="35.6548" xlink:href="file:///ssw/projects/pandora/hermes/doc/./hermes-module1.svg"/>
  <image x="61.4" y="194.9" width="69" height="35.6548" xlink:href="file:///ssw/projects/pandora/hermes/doc/./hermes-module1.svg"/>
  <image x="60.4" y="254.9" width="69" height="35.6548" xlink:href="file:///ssw/projects/pandora/hermes/doc/./hermes-module1.svg"/>
  <image x="61.4" y="311.9" width="69" height="35.6548" xlink:href="file:///ssw/projects/pandora/hermes/doc/./hermes-module1.svg"/>
  <g>
    <polyline style="fill: none; fill-opacity:0; stroke-width: 2; stroke: #008000" points="73.7639,135.655 51,135.655 51,165 36,165 36,194.9 49.1639,194.9 "/>
    <polygon style="fill: none; fill-opacity:0; stroke-width: 2; stroke: #008000" points="73.7639,140.655 83.7639,135.655 73.7639,130.655 "/>
    <polygon style="fill: none; fill-opacity:0; stroke-width: 2; stroke: #008000" points="49.1639,199.9 59.1639,194.9 49.1639,189.9 "/>
  </g>
  <g>
    <polyline style="fill: none; fill-opacity:0; stroke-width: 2; stroke: #008000" points="49.1639,230.554 31.4,230.554 31.4,243 28,243 28,254.9 48.1639,254.9 "/>
    <polygon style="fill: none; fill-opacity:0; stroke-width: 2; stroke: #008000" points="49.1639,235.554 59.1639,230.554 49.1639,225.554 "/>
    <polygon style="fill: none; fill-opacity:0; stroke-width: 2; stroke: #008000" points="48.1639,259.9 58.1639,254.9 48.1639,249.9 "/>
  </g>
  <g>
    <polyline style="fill: none; fill-opacity:0; stroke-width: 2; stroke: #008000" points="45.7639,288 38,288 38,304 34,304 34,311.9 49.1639,311.9 "/>
    <polygon style="fill: none; fill-opacity:0; stroke-width: 2; stroke: #008000" points="45.7639,293 55.7639,288 45.7639,283 "/>
    <polygon style="fill: none; fill-opacity:0; stroke-width: 2; stroke: #008000" points="49.1639,316.9 59.1639,311.9 49.1639,306.9 "/>
  </g>
  <g>
    <path style="fill: #ffffff" d="M 171.248 19.574 C 164.917,19.3672 152.64,23.7098 154.367,33.0154 C 156.093,42.321 164.342,44.3888 167.795,41.7006 C 171.248,39.0123 162.424,54.7284 179.305,58.8642 C 196.186,63 204.818,56.3827 202.324,51.6265 C 199.83,46.8703 217.095,62.7932 225.152,53.6944 C 233.209,44.5956 216.903,35.9105 220.356,37.1512 C 223.809,38.392 234.36,36.7376 230.907,21.2283 C 227.454,5.71898 196.377,17.7129 199.83,15.4382 C 203.283,13.1635 194.651,1.78993 183.909,4.06463 C 173.166,6.33935 172.404,10.4671 171.253,19.5659 L 171.248,19.574z"/>
    <path style="fill: none; fill-opacity:0; stroke-width: 2; stroke: #000000" d="M 171.248 19.574 C 164.917,19.3672 152.64,23.7098 154.367,33.0154 C 156.093,42.321 164.342,44.3888 167.795,41.7006 C 171.248,39.0123 162.424,54.7284 179.305,58.8642 C 196.186,63 204.818,56.3827 202.324,51.6265 C 199.83,46.8703 217.095,62.7932 225.152,53.6944 C 233.209,44.5956 216.903,35.9105 220.356,37.1512 C 223.809,38.392 234.36,36.7376 230.907,21.2283 C 227.454,5.71898 196.377,17.7129 199.83,15.4382 C 203.283,13.1635 194.651,1.78993 183.909,4.06463 C 173.166,6.33935 172.404,10.4671 171.253,19.5659 L 171.248,19.574"/>
    <text font-size="12.8" style="fill: #008000;text-anchor:middle;font-family:sans-serif;font-style:normal;font-weight:normal" x="195.691" y="37.474">
      <tspan x="195.691" y="37.474">uplink</tspan>
    </text>
  </g>
  <g>
    <polyline style="fill: none; fill-opacity:0; stroke-width: 2; stroke: #800080" points="141.221,32.1712 53.4,32.1712 53.4,92.8632 38.4,92.8632 38.4,103 70.7639,103 "/>
    <polygon style="fill: none; fill-opacity:0; stroke-width: 2; stroke: #800080" points="141.221,37.1712 151.221,32.1712 141.221,27.1712 "/>
    <polygon style="fill: none; fill-opacity:0; stroke-width: 2; stroke: #800080" points="70.7639,108 80.7639,103 70.7639,98 "/>
  </g>
  <g>
    <rect style="fill: #d9d9cd" x="163.4" y="358.9" width="153.5" height="38.375"/>
    <rect style="fill: none; fill-opacity:0; stroke-width: 2; stroke: #7f7f7f" x="163.4" y="358.9" width="153.5" height="38.375"/>
    <rect style="fill: none; fill-opacity:0; stroke-width: 0.2; stroke: #000000" x="163.4" y="358.9" width="153.5" height="38.375"/>
    <line style="fill: none; fill-opacity:0; stroke-width: 0.2; stroke: #000000" x1="190.263" y1="374.25" x2="186.425" y2="378.088"/>
    <line style="fill: none; fill-opacity:0; stroke-width: 0.2; stroke: #000000" x1="186.425" y1="378.088" x2="190.263" y2="381.925"/>
    <line style="fill: none; fill-opacity:0; stroke-width: 0.2; stroke: #000000" x1="205.613" y1="374.25" x2="201.775" y2="378.088"/>
    <line style="fill: none; fill-opacity:0; stroke-width: 0.2; stroke: #000000" x1="201.775" y1="378.088" x2="205.613" y2="381.925"/>
    <line style="fill: none; fill-opacity:0; stroke-width: 0.2; stroke: #000000" x1="220.963" y1="374.25" x2="217.125" y2="378.088"/>
    <line style="fill: none; fill-opacity:0; stroke-width: 0.2; stroke: #000000" x1="217.125" y1="378.088" x2="220.963" y2="381.925"/>
    <line style="fill: none; fill-opacity:0; stroke-width: 0.2; stroke: #000000" x1="236.313" y1="374.25" x2="232.475" y2="378.088"/>
    <line style="fill: none; fill-opacity:0; stroke-width: 0.2; stroke: #000000" x1="232.475" y1="378.088" x2="236.313" y2="381.925"/>
    <line style="fill: none; fill-opacity:0; stroke-width: 0.2; stroke: #000000" x1="251.663" y1="374.25" x2="247.825" y2="378.088"/>
    <line style="fill: none; fill-opacity:0; stroke-width: 0.2; stroke: #000000" x1="247.825" y1="378.088" x2="251.663" y2="381.925"/>
    <line style="fill: none; fill-opacity:0; stroke-width: 0.2; stroke: #000000" x1="267.013" y1="374.25" x2="263.175" y2="378.088"/>
    <line style="fill: none; fill-opacity:0; stroke-width: 0.2; stroke: #000000" x1="263.175" y1="378.088" x2="267.013" y2="381.925"/>
    <line style="fill: none; fill-opacity:0; stroke-width: 0.2; stroke: #000000" x1="282.363" y1="374.25" x2="278.525" y2="378.088"/>
    <line style="fill: none; fill-opacity:0; stroke-width: 0.2; stroke: #000000" x1="278.525" y1="378.088" x2="282.363" y2="381.925"/>
    <line style="fill: none; fill-opacity:0; stroke-width: 0.2; stroke: #000000" x1="297.713" y1="374.25" x2="293.875" y2="378.088"/>
    <line style="fill: none; fill-opacity:0; stroke-width: 0.2; stroke: #000000" x1="293.875" y1="378.088" x2="297.713" y2="381.925"/>
    <line style="fill: none; fill-opacity:0; stroke-width: 0.2; stroke: #000000" x1="305.388" y1="385.763" x2="301.55" y2="389.6"/>
    <line style="fill: none; fill-opacity:0; stroke-width: 0.2; stroke: #000000" x1="301.55" y1="389.6" x2="305.388" y2="393.438"/>
    <line style="fill: none; fill-opacity:0; stroke-width: 0.2; stroke: #000000" x1="290.038" y1="385.763" x2="286.2" y2="389.6"/>
    <line style="fill: none; fill-opacity:0; stroke-width: 0.2; stroke: #000000" x1="286.2" y1="389.6" x2="290.038" y2="393.438"/>
    <line style="fill: none; fill-opacity:0; stroke-width: 0.2; stroke: #000000" x1="274.688" y1="385.763" x2="270.85" y2="389.6"/>
    <line style="fill: none; fill-opacity:0; stroke-width: 0.2; stroke: #000000" x1="270.85" y1="389.6" x2="274.688" y2="393.438"/>
    <line style="fill: none; fill-opacity:0; stroke-width: 0.2; stroke: #000000" x1="259.338" y1="385.763" x2="255.5" y2="389.6"/>
    <line style="fill: none; fill-opacity:0; stroke-width: 0.2; stroke: #000000" x1="255.5" y1="389.6" x2="259.338" y2="393.438"/>
    <line style="fill: none; fill-opacity:0; stroke-width: 0.2; stroke: #000000" x1="243.988" y1="385.763" x2="240.15" y2="389.6"/>
    <line style="fill: none; fill-opacity:0; stroke-width: 0.2; stroke: #000000" x1="240.15" y1="389.6" x2="243.988" y2="393.438"/>
    <line style="fill: none; fill-opacity:0; stroke-width: 0.2; stroke: #000000" x1="228.638" y1="385.763" x2="224.8" y2="389.6"/>
    <line style="fill: none; fill-opacity:0; stroke-width: 0.2; stroke: #000000" x1="224.8" y1="389.6" x2="228.638" y2="393.438"/>
    <line style="fill: none; fill-opacity:0; stroke-width: 0.2; stroke: #000000" x1="213.288" y1="385.763" x2="209.45" y2="389.6"/>
    <line style="fill: none; fill-opacity:0; stroke-width: 0.2; stroke: #000000" x1="209.45" y1="389.6" x2="213.288" y2="393.438"/>
    <rect style="fill: #d9d9cd" x="190.263" y="389.6" width="15.35" height="3.8375"/>
    <rect style="fill: none; fill-opacity:0; stroke-width: 2; stroke: #7f7f7f" x="190.263" y="389.6" width="15.35" height="3.8375"/>
    <rect style="fill: none; fill-opacity:0; stroke-width: 0.2; stroke: #000000" x="190.263" y="389.6" width="15.35" height="3.8375"/>
    <polygon style="fill: #cdcdcd" points="174.913,378.088 182.587,385.763 174.913,393.438 167.237,385.763 "/>
    <polygon style="fill: none; fill-opacity:0; stroke-width: 2; stroke: #7f7f7f" points="174.913,378.088 182.587,385.763 174.913,393.438 167.237,385.763 "/>
    <polygon style="fill: none; fill-opacity:0; stroke-width: 0.2; stroke: #000000" points="174.913,378.088 182.587,385.763 174.913,393.438 167.237,385.763 "/>
    <rect style="fill: #d9d9cd" x="163.4" y="366.575" width="153.5" height="3.8375"/>
    <rect style="fill: none; fill-opacity:0; stroke-width: 2; stroke: #7f7f7f" x="163.4" y="366.575" width="153.5" height="3.8375"/>
    <rect style="fill: none; fill-opacity:0; stroke-width: 0.2; stroke: #000000" x="163.4" y="366.575" width="153.5" height="3.8375"/>
    <rect style="fill: #cdcdcd" x="182.587" y="366.575" width="34.5375" height="3.8375"/>
    <rect style="fill: none; fill-opacity:0; stroke-width: 2; stroke: #7f7f7f" x="182.587" y="366.575" width="34.5375" height="3.8375"/>
    <rect style="fill: none; fill-opacity:0; stroke-width: 0.2; stroke: #000000" x="182.587" y="366.575" width="34.5375" height="3.8375"/>
  </g>
  <g>
    <polyline style="fill: none; fill-opacity:0; stroke-width: 2; stroke: #6c5353" points="49.1639,347.554 28.4,347.554 28.4,371.518 24.4,371.518 24.4,421 65.7639,421 "/>
    <polygon style="fill: none; fill-opacity:0; stroke-width: 2; stroke: #6c5353" points="49.1639,352.554 59.1639,347.554 49.1639,342.554 "/>
    <polygon style="fill: none; fill-opacity:0; stroke-width: 2; stroke: #6c5353" points="65.7639,426 75.7639,421 65.7639,416 "/>
  </g>
  <polyline style="fill: none; fill-opacity:0; stroke-width: 2; stroke: #a52a2a" points="261.25,90 261.25,24 193.561,24 193.561,32.1712 "/>
</svg>
