<?xml version="1.0" encoding="UTF-8"?>
<svg xmlns="http://www.w3.org/2000/svg" xmlns:xlink="http://www.w3.org/1999/xlink" width="330pt" height="398pt" viewBox="0 0 330 398" version="1.1">
<g id="surface39852">
<rect x="0" y="0" width="330" height="398" style="fill:rgb(100%,100%,100%);fill-opacity:1;stroke:none;"/>
<path style="fill-rule:evenodd;fill:rgb(100%,100%,100%);fill-opacity:1;stroke-width:0.1;stroke-linecap:butt;stroke-linejoin:miter;stroke:rgb(0%,0%,0%);stroke-opacity:1;stroke-miterlimit:10;" d="M 5.05 3 L 16.55 3 L 16.55 22.8 L 5.05 22.8 Z M 5.05 3 " transform="matrix(20,0,0,20,-100,-59)"/>
<path style="fill:none;stroke-width:0.1;stroke-linecap:butt;stroke-linejoin:miter;stroke:rgb(49.803922%,49.803922%,49.803922%);stroke-opacity:1;stroke-miterlimit:10;" d="M 20.5 3.95 L 20.5 22.35 " transform="matrix(20,0,0,20,-100,-59)"/>
<path style="fill:none;stroke-width:0.1;stroke-linecap:butt;stroke-linejoin:miter;stroke:rgb(49.803922%,49.803922%,49.803922%);stroke-opacity:1;stroke-miterlimit:10;" d="M 20.5 10.549414 L 15.815039 10.549414 " transform="matrix(20,0,0,20,-100,-59)"/>
<path style="fill:none;stroke-width:0.1;stroke-linecap:butt;stroke-linejoin:miter;stroke:rgb(49.803922%,49.803922%,49.803922%);stroke-opacity:1;stroke-miterlimit:10;" d="M 20.5 9.228516 L 21.5 9.228516 " transform="matrix(20,0,0,20,-100,-59)"/>
<path style="fill:none;stroke-width:0.1;stroke-linecap:butt;stroke-linejoin:miter;stroke:rgb(49.803922%,49.803922%,49.803922%);stroke-opacity:1;stroke-miterlimit:10;" d="M 20.5 13.404297 L 15.894922 13.404297 " transform="matrix(20,0,0,20,-100,-59)"/>
<path style="fill:none;stroke-width:0.1;stroke-linecap:butt;stroke-linejoin:miter;stroke:rgb(49.803922%,49.803922%,49.803922%);stroke-opacity:1;stroke-miterlimit:10;" d="M 20.5 5.9625 L 14.525 5.9625 " transform="matrix(20,0,0,20,-100,-59)"/>
<path style="fill:none;stroke-width:0.1;stroke-linecap:butt;stroke-linejoin:miter;stroke:rgb(49.803922%,49.803922%,49.803922%);stroke-opacity:1;stroke-miterlimit:10;" d="M 20.5 16.209375 L 15.875 16.209375 " transform="matrix(20,0,0,20,-100,-59)"/>
<path style="fill:none;stroke-width:0.1;stroke-linecap:butt;stroke-linejoin:miter;stroke:rgb(49.803922%,49.803922%,49.803922%);stroke-opacity:1;stroke-miterlimit:10;" d="M 20.5 19.45 L 18.7 19.45 " transform="matrix(20,0,0,20,-100,-59)"/>
<path style="fill-rule:evenodd;fill:rgb(85.09804%,85.09804%,80.392158%);fill-opacity:1;stroke-width:0.1;stroke-linecap:butt;stroke-linejoin:miter;stroke:rgb(49.803922%,49.803922%,49.803922%);stroke-opacity:1;stroke-miterlimit:10;" d="M 8.2 15.25 L 15.875 15.25 L 15.875 17.16875 L 8.2 17.16875 Z M 8.2 15.25 " transform="matrix(20,0,0,20,-100,-59)"/>
<path style="fill:none;stroke-width:0.05;stroke-linecap:butt;stroke-linejoin:miter;stroke:rgb(0%,0%,0%);stroke-opacity:1;stroke-miterlimit:10;" d="M 8.2 15.25 L 15.875 15.25 L 15.875 17.16875 L 8.2 17.16875 Z M 8.2 15.25 " transform="matrix(20,0,0,20,-100,-59)"/>
<path style="fill:none;stroke-width:0.05;stroke-linecap:butt;stroke-linejoin:miter;stroke:rgb(0%,0%,0%);stroke-opacity:1;stroke-miterlimit:10;" d="M 9.543164 16.017578 L 9.351172 16.209375 " transform="matrix(20,0,0,20,-100,-59)"/>
<path style="fill:none;stroke-width:0.05;stroke-linecap:butt;stroke-linejoin:miter;stroke:rgb(0%,0%,0%);stroke-opacity:1;stroke-miterlimit:10;" d="M 9.351172 16.209375 L 9.543164 16.401172 " transform="matrix(20,0,0,20,-100,-59)"/>
<path style="fill:none;stroke-width:0.05;stroke-linecap:butt;stroke-linejoin:miter;stroke:rgb(0%,0%,0%);stroke-opacity:1;stroke-miterlimit:10;" d="M 10.310547 16.017578 L 10.11875 16.209375 " transform="matrix(20,0,0,20,-100,-59)"/>
<path style="fill:none;stroke-width:0.05;stroke-linecap:butt;stroke-linejoin:miter;stroke:rgb(0%,0%,0%);stroke-opacity:1;stroke-miterlimit:10;" d="M 10.11875 16.209375 L 10.310547 16.401172 " transform="matrix(20,0,0,20,-100,-59)"/>
<path style="fill:none;stroke-width:0.05;stroke-linecap:butt;stroke-linejoin:miter;stroke:rgb(0%,0%,0%);stroke-opacity:1;stroke-miterlimit:10;" d="M 11.078125 16.017578 L 10.886328 16.209375 " transform="matrix(20,0,0,20,-100,-59)"/>
<path style="fill:none;stroke-width:0.05;stroke-linecap:butt;stroke-linejoin:miter;stroke:rgb(0%,0%,0%);stroke-opacity:1;stroke-miterlimit:10;" d="M 10.886328 16.209375 L 11.078125 16.401172 " transform="matrix(20,0,0,20,-100,-59)"/>
<path style="fill:none;stroke-width:0.05;stroke-linecap:butt;stroke-linejoin:miter;stroke:rgb(0%,0%,0%);stroke-opacity:1;stroke-miterlimit:10;" d="M 11.845703 16.017578 L 11.653711 16.209375 " transform="matrix(20,0,0,20,-100,-59)"/>
<path style="fill:none;stroke-width:0.05;stroke-linecap:butt;stroke-linejoin:miter;stroke:rgb(0%,0%,0%);stroke-opacity:1;stroke-miterlimit:10;" d="M 11.653711 16.209375 L 11.845703 16.401172 " transform="matrix(20,0,0,20,-100,-59)"/>
<path style="fill:none;stroke-width:0.05;stroke-linecap:butt;stroke-linejoin:miter;stroke:rgb(0%,0%,0%);stroke-opacity:1;stroke-miterlimit:10;" d="M 12.613086 16.017578 L 12.421289 16.209375 " transform="matrix(20,0,0,20,-100,-59)"/>
<path style="fill:none;stroke-width:0.05;stroke-linecap:butt;stroke-linejoin:miter;stroke:rgb(0%,0%,0%);stroke-opacity:1;stroke-miterlimit:10;" d="M 12.421289 16.209375 L 12.613086 16.401172 " transform="matrix(20,0,0,20,-100,-59)"/>
<path style="fill:none;stroke-width:0.05;stroke-linecap:butt;stroke-linejoin:miter;stroke:rgb(0%,0%,0%);stroke-opacity:1;stroke-miterlimit:10;" d="M 13.380664 16.017578 L 13.188672 16.209375 " transform="matrix(20,0,0,20,-100,-59)"/>
<path style="fill:none;stroke-width:0.05;stroke-linecap:butt;stroke-linejoin:miter;stroke:rgb(0%,0%,0%);stroke-opacity:1;stroke-miterlimit:10;" d="M 13.188672 16.209375 L 13.380664 16.401172 " transform="matrix(20,0,0,20,-100,-59)"/>
<path style="fill:none;stroke-width:0.05;stroke-linecap:butt;stroke-linejoin:miter;stroke:rgb(0%,0%,0%);stroke-opacity:1;stroke-miterlimit:10;" d="M 14.148047 16.017578 L 13.95625 16.209375 " transform="matrix(20,0,0,20,-100,-59)"/>
<path style="fill:none;stroke-width:0.05;stroke-linecap:butt;stroke-linejoin:miter;stroke:rgb(0%,0%,0%);stroke-opacity:1;stroke-miterlimit:10;" d="M 13.95625 16.209375 L 14.148047 16.401172 " transform="matrix(20,0,0,20,-100,-59)"/>
<path style="fill:none;stroke-width:0.05;stroke-linecap:butt;stroke-linejoin:miter;stroke:rgb(0%,0%,0%);stroke-opacity:1;stroke-miterlimit:10;" d="M 14.915625 16.017578 L 14.723828 16.209375 " transform="matrix(20,0,0,20,-100,-59)"/>
<path style="fill:none;stroke-width:0.05;stroke-linecap:butt;stroke-linejoin:miter;stroke:rgb(0%,0%,0%);stroke-opacity:1;stroke-miterlimit:10;" d="M 14.723828 16.209375 L 14.915625 16.401172 " transform="matrix(20,0,0,20,-100,-59)"/>
<path style="fill:none;stroke-width:0.05;stroke-linecap:butt;stroke-linejoin:miter;stroke:rgb(0%,0%,0%);stroke-opacity:1;stroke-miterlimit:10;" d="M 15.299414 16.593164 L 15.107422 16.784961 " transform="matrix(20,0,0,20,-100,-59)"/>
<path style="fill:none;stroke-width:0.05;stroke-linecap:butt;stroke-linejoin:miter;stroke:rgb(0%,0%,0%);stroke-opacity:1;stroke-miterlimit:10;" d="M 15.107422 16.784961 L 15.299414 16.976953 " transform="matrix(20,0,0,20,-100,-59)"/>
<path style="fill:none;stroke-width:0.05;stroke-linecap:butt;stroke-linejoin:miter;stroke:rgb(0%,0%,0%);stroke-opacity:1;stroke-miterlimit:10;" d="M 14.531836 16.593164 L 14.340039 16.784961 " transform="matrix(20,0,0,20,-100,-59)"/>
<path style="fill:none;stroke-width:0.05;stroke-linecap:butt;stroke-linejoin:miter;stroke:rgb(0%,0%,0%);stroke-opacity:1;stroke-miterlimit:10;" d="M 14.340039 16.784961 L 14.531836 16.976953 " transform="matrix(20,0,0,20,-100,-59)"/>
<path style="fill:none;stroke-width:0.05;stroke-linecap:butt;stroke-linejoin:miter;stroke:rgb(0%,0%,0%);stroke-opacity:1;stroke-miterlimit:10;" d="M 13.764453 16.593164 L 13.572461 16.784961 " transform="matrix(20,0,0,20,-100,-59)"/>
<path style="fill:none;stroke-width:0.05;stroke-linecap:butt;stroke-linejoin:miter;stroke:rgb(0%,0%,0%);stroke-opacity:1;stroke-miterlimit:10;" d="M 13.572461 16.784961 L 13.764453 16.976953 " transform="matrix(20,0,0,20,-100,-59)"/>
<path style="fill:none;stroke-width:0.05;stroke-linecap:butt;stroke-linejoin:miter;stroke:rgb(0%,0%,0%);stroke-opacity:1;stroke-miterlimit:10;" d="M 12.996875 16.593164 L 12.805078 16.784961 " transform="matrix(20,0,0,20,-100,-59)"/>
<path style="fill:none;stroke-width:0.05;stroke-linecap:butt;stroke-linejoin:miter;stroke:rgb(0%,0%,0%);stroke-opacity:1;stroke-miterlimit:10;" d="M 12.805078 16.784961 L 12.996875 16.976953 " transform="matrix(20,0,0,20,-100,-59)"/>
<path style="fill:none;stroke-width:0.05;stroke-linecap:butt;stroke-linejoin:miter;stroke:rgb(0%,0%,0%);stroke-opacity:1;stroke-miterlimit:10;" d="M 12.229297 16.593164 L 12.0375 16.784961 " transform="matrix(20,0,0,20,-100,-59)"/>
<path style="fill:none;stroke-width:0.05;stroke-linecap:butt;stroke-linejoin:miter;stroke:rgb(0%,0%,0%);stroke-opacity:1;stroke-miterlimit:10;" d="M 12.0375 16.784961 L 12.229297 16.976953 " transform="matrix(20,0,0,20,-100,-59)"/>
<path style="fill:none;stroke-width:0.05;stroke-linecap:butt;stroke-linejoin:miter;stroke:rgb(0%,0%,0%);stroke-opacity:1;stroke-miterlimit:10;" d="M 11.461914 16.593164 L 11.269922 16.784961 " transform="matrix(20,0,0,20,-100,-59)"/>
<path style="fill:none;stroke-width:0.05;stroke-linecap:butt;stroke-linejoin:miter;stroke:rgb(0%,0%,0%);stroke-opacity:1;stroke-miterlimit:10;" d="M 11.269922 16.784961 L 11.461914 16.976953 " transform="matrix(20,0,0,20,-100,-59)"/>
<path style="fill:none;stroke-width:0.05;stroke-linecap:butt;stroke-linejoin:miter;stroke:rgb(0%,0%,0%);stroke-opacity:1;stroke-miterlimit:10;" d="M 10.694336 16.593164 L 10.502539 16.784961 " transform="matrix(20,0,0,20,-100,-59)"/>
<path style="fill:none;stroke-width:0.05;stroke-linecap:butt;stroke-linejoin:miter;stroke:rgb(0%,0%,0%);stroke-opacity:1;stroke-miterlimit:10;" d="M 10.502539 16.784961 L 10.694336 16.976953 " transform="matrix(20,0,0,20,-100,-59)"/>
<path style="fill-rule:evenodd;fill:rgb(85.09804%,85.09804%,80.392158%);fill-opacity:1;stroke-width:0.1;stroke-linecap:butt;stroke-linejoin:miter;stroke:rgb(49.803922%,49.803922%,49.803922%);stroke-opacity:1;stroke-miterlimit:10;" d="M 9.543164 16.784961 L 10.310742 16.784961 L 10.310742 16.976758 L 9.543164 16.976758 Z M 9.543164 16.784961 " transform="matrix(20,0,0,20,-100,-59)"/>
<path style="fill:none;stroke-width:0.05;stroke-linecap:butt;stroke-linejoin:miter;stroke:rgb(0%,0%,0%);stroke-opacity:1;stroke-miterlimit:10;" d="M 9.543164 16.784961 L 10.310742 16.784961 L 10.310742 16.976758 L 9.543164 16.976758 Z M 9.543164 16.784961 " transform="matrix(20,0,0,20,-100,-59)"/>
<path style="fill-rule:evenodd;fill:rgb(80.392158%,80.392158%,80.392158%);fill-opacity:1;stroke-width:0.1;stroke-linecap:butt;stroke-linejoin:miter;stroke:rgb(49.803922%,49.803922%,49.803922%);stroke-opacity:1;stroke-miterlimit:10;" d="M 8.775586 16.209375 L 9.159375 16.593164 L 8.775586 16.976953 L 8.391797 16.593164 Z M 8.775586 16.209375 " transform="matrix(20,0,0,20,-100,-59)"/>
<path style="fill:none;stroke-width:0.05;stroke-linecap:butt;stroke-linejoin:miter;stroke:rgb(0%,0%,0%);stroke-opacity:1;stroke-miterlimit:10;" d="M 8.775586 16.209375 L 9.159375 16.593164 L 8.775586 16.976953 L 8.391797 16.593164 Z M 8.775586 16.209375 " transform="matrix(20,0,0,20,-100,-59)"/>
<path style="fill-rule:evenodd;fill:rgb(85.09804%,85.09804%,80.392158%);fill-opacity:1;stroke-width:0.1;stroke-linecap:butt;stroke-linejoin:miter;stroke:rgb(49.803922%,49.803922%,49.803922%);stroke-opacity:1;stroke-miterlimit:10;" d="M 8.2 15.633789 L 15.875 15.633789 L 15.875 15.825586 L 8.2 15.825586 Z M 8.2 15.633789 " transform="matrix(20,0,0,20,-100,-59)"/>
<path style="fill:none;stroke-width:0.05;stroke-linecap:butt;stroke-linejoin:miter;stroke:rgb(0%,0%,0%);stroke-opacity:1;stroke-miterlimit:10;" d="M 8.2 15.633789 L 15.875 15.633789 L 15.875 15.825586 L 8.2 15.825586 Z M 8.2 15.633789 " transform="matrix(20,0,0,20,-100,-59)"/>
<path style="fill-rule:evenodd;fill:rgb(80.392158%,80.392158%,80.392158%);fill-opacity:1;stroke-width:0.1;stroke-linecap:butt;stroke-linejoin:miter;stroke:rgb(49.803922%,49.803922%,49.803922%);stroke-opacity:1;stroke-miterlimit:10;" d="M 9.159375 15.633789 L 10.886328 15.633789 L 10.886328 15.825586 L 9.159375 15.825586 Z M 9.159375 15.633789 " transform="matrix(20,0,0,20,-100,-59)"/>
<path style="fill:none;stroke-width:0.05;stroke-linecap:butt;stroke-linejoin:miter;stroke:rgb(0%,0%,0%);stroke-opacity:1;stroke-miterlimit:10;" d="M 9.159375 15.633789 L 10.886328 15.633789 L 10.886328 15.825586 L 9.159375 15.825586 Z M 9.159375 15.633789 " transform="matrix(20,0,0,20,-100,-59)"/>
<path style="fill-rule:evenodd;fill:rgb(85.09804%,85.09804%,80.392158%);fill-opacity:1;stroke-width:0.1;stroke-linecap:butt;stroke-linejoin:miter;stroke:rgb(49.803922%,49.803922%,49.803922%);stroke-opacity:1;stroke-miterlimit:10;" d="M 8.219922 12.444922 L 15.894922 12.444922 L 15.894922 14.363672 L 8.219922 14.363672 Z M 8.219922 12.444922 " transform="matrix(20,0,0,20,-100,-59)"/>
<path style="fill:none;stroke-width:0.05;stroke-linecap:butt;stroke-linejoin:miter;stroke:rgb(0%,0%,0%);stroke-opacity:1;stroke-miterlimit:10;" d="M 8.219922 12.444922 L 15.894922 12.444922 L 15.894922 14.363672 L 8.219922 14.363672 Z M 8.219922 12.444922 " transform="matrix(20,0,0,20,-100,-59)"/>
<path style="fill:none;stroke-width:0.05;stroke-linecap:butt;stroke-linejoin:miter;stroke:rgb(0%,0%,0%);stroke-opacity:1;stroke-miterlimit:10;" d="M 9.563086 13.2125 L 9.371289 13.404297 " transform="matrix(20,0,0,20,-100,-59)"/>
<path style="fill:none;stroke-width:0.05;stroke-linecap:butt;stroke-linejoin:miter;stroke:rgb(0%,0%,0%);stroke-opacity:1;stroke-miterlimit:10;" d="M 9.371289 13.404297 L 9.563086 13.596289 " transform="matrix(20,0,0,20,-100,-59)"/>
<path style="fill:none;stroke-width:0.05;stroke-linecap:butt;stroke-linejoin:miter;stroke:rgb(0%,0%,0%);stroke-opacity:1;stroke-miterlimit:10;" d="M 10.330664 13.2125 L 10.138672 13.404297 " transform="matrix(20,0,0,20,-100,-59)"/>
<path style="fill:none;stroke-width:0.05;stroke-linecap:butt;stroke-linejoin:miter;stroke:rgb(0%,0%,0%);stroke-opacity:1;stroke-miterlimit:10;" d="M 10.138672 13.404297 L 10.330664 13.596289 " transform="matrix(20,0,0,20,-100,-59)"/>
<path style="fill:none;stroke-width:0.05;stroke-linecap:butt;stroke-linejoin:miter;stroke:rgb(0%,0%,0%);stroke-opacity:1;stroke-miterlimit:10;" d="M 11.098047 13.2125 L 10.90625 13.404297 " transform="matrix(20,0,0,20,-100,-59)"/>
<path style="fill:none;stroke-width:0.05;stroke-linecap:butt;stroke-linejoin:miter;stroke:rgb(0%,0%,0%);stroke-opacity:1;stroke-miterlimit:10;" d="M 10.90625 13.404297 L 11.098047 13.596289 " transform="matrix(20,0,0,20,-100,-59)"/>
<path style="fill:none;stroke-width:0.05;stroke-linecap:butt;stroke-linejoin:miter;stroke:rgb(0%,0%,0%);stroke-opacity:1;stroke-miterlimit:10;" d="M 11.865625 13.2125 L 11.673828 13.404297 " transform="matrix(20,0,0,20,-100,-59)"/>
<path style="fill:none;stroke-width:0.05;stroke-linecap:butt;stroke-linejoin:miter;stroke:rgb(0%,0%,0%);stroke-opacity:1;stroke-miterlimit:10;" d="M 11.673828 13.404297 L 11.865625 13.596289 " transform="matrix(20,0,0,20,-100,-59)"/>
<path style="fill:none;stroke-width:0.05;stroke-linecap:butt;stroke-linejoin:miter;stroke:rgb(0%,0%,0%);stroke-opacity:1;stroke-miterlimit:10;" d="M 12.633203 13.2125 L 12.441211 13.404297 " transform="matrix(20,0,0,20,-100,-59)"/>
<path style="fill:none;stroke-width:0.05;stroke-linecap:butt;stroke-linejoin:miter;stroke:rgb(0%,0%,0%);stroke-opacity:1;stroke-miterlimit:10;" d="M 12.441211 13.404297 L 12.633203 13.596289 " transform="matrix(20,0,0,20,-100,-59)"/>
<path style="fill:none;stroke-width:0.05;stroke-linecap:butt;stroke-linejoin:miter;stroke:rgb(0%,0%,0%);stroke-opacity:1;stroke-miterlimit:10;" d="M 13.400586 13.2125 L 13.208789 13.404297 " transform="matrix(20,0,0,20,-100,-59)"/>
<path style="fill:none;stroke-width:0.05;stroke-linecap:butt;stroke-linejoin:miter;stroke:rgb(0%,0%,0%);stroke-opacity:1;stroke-miterlimit:10;" d="M 13.208789 13.404297 L 13.400586 13.596289 " transform="matrix(20,0,0,20,-100,-59)"/>
<path style="fill:none;stroke-width:0.05;stroke-linecap:butt;stroke-linejoin:miter;stroke:rgb(0%,0%,0%);stroke-opacity:1;stroke-miterlimit:10;" d="M 14.168164 13.2125 L 13.976172 13.404297 " transform="matrix(20,0,0,20,-100,-59)"/>
<path style="fill:none;stroke-width:0.05;stroke-linecap:butt;stroke-linejoin:miter;stroke:rgb(0%,0%,0%);stroke-opacity:1;stroke-miterlimit:10;" d="M 13.976172 13.404297 L 14.168164 13.596289 " transform="matrix(20,0,0,20,-100,-59)"/>
<path style="fill:none;stroke-width:0.05;stroke-linecap:butt;stroke-linejoin:miter;stroke:rgb(0%,0%,0%);stroke-opacity:1;stroke-miterlimit:10;" d="M 14.935547 13.2125 L 14.74375 13.404297 " transform="matrix(20,0,0,20,-100,-59)"/>
<path style="fill:none;stroke-width:0.05;stroke-linecap:butt;stroke-linejoin:miter;stroke:rgb(0%,0%,0%);stroke-opacity:1;stroke-miterlimit:10;" d="M 14.74375 13.404297 L 14.935547 13.596289 " transform="matrix(20,0,0,20,-100,-59)"/>
<path style="fill:none;stroke-width:0.05;stroke-linecap:butt;stroke-linejoin:miter;stroke:rgb(0%,0%,0%);stroke-opacity:1;stroke-miterlimit:10;" d="M 15.319336 13.788086 L 15.127539 13.980078 " transform="matrix(20,0,0,20,-100,-59)"/>
<path style="fill:none;stroke-width:0.05;stroke-linecap:butt;stroke-linejoin:miter;stroke:rgb(0%,0%,0%);stroke-opacity:1;stroke-miterlimit:10;" d="M 15.127539 13.980078 L 15.319336 14.171875 " transform="matrix(20,0,0,20,-100,-59)"/>
<path style="fill:none;stroke-width:0.05;stroke-linecap:butt;stroke-linejoin:miter;stroke:rgb(0%,0%,0%);stroke-opacity:1;stroke-miterlimit:10;" d="M 14.551953 13.788086 L 14.359961 13.980078 " transform="matrix(20,0,0,20,-100,-59)"/>
<path style="fill:none;stroke-width:0.05;stroke-linecap:butt;stroke-linejoin:miter;stroke:rgb(0%,0%,0%);stroke-opacity:1;stroke-miterlimit:10;" d="M 14.359961 13.980078 L 14.551953 14.171875 " transform="matrix(20,0,0,20,-100,-59)"/>
<path style="fill:none;stroke-width:0.05;stroke-linecap:butt;stroke-linejoin:miter;stroke:rgb(0%,0%,0%);stroke-opacity:1;stroke-miterlimit:10;" d="M 13.784375 13.788086 L 13.592578 13.980078 " transform="matrix(20,0,0,20,-100,-59)"/>
<path style="fill:none;stroke-width:0.05;stroke-linecap:butt;stroke-linejoin:miter;stroke:rgb(0%,0%,0%);stroke-opacity:1;stroke-miterlimit:10;" d="M 13.592578 13.980078 L 13.784375 14.171875 " transform="matrix(20,0,0,20,-100,-59)"/>
<path style="fill:none;stroke-width:0.05;stroke-linecap:butt;stroke-linejoin:miter;stroke:rgb(0%,0%,0%);stroke-opacity:1;stroke-miterlimit:10;" d="M 13.016797 13.788086 L 12.825 13.980078 " transform="matrix(20,0,0,20,-100,-59)"/>
<path style="fill:none;stroke-width:0.05;stroke-linecap:butt;stroke-linejoin:miter;stroke:rgb(0%,0%,0%);stroke-opacity:1;stroke-miterlimit:10;" d="M 12.825 13.980078 L 13.016797 14.171875 " transform="matrix(20,0,0,20,-100,-59)"/>
<path style="fill:none;stroke-width:0.05;stroke-linecap:butt;stroke-linejoin:miter;stroke:rgb(0%,0%,0%);stroke-opacity:1;stroke-miterlimit:10;" d="M 12.249414 13.788086 L 12.057422 13.980078 " transform="matrix(20,0,0,20,-100,-59)"/>
<path style="fill:none;stroke-width:0.05;stroke-linecap:butt;stroke-linejoin:miter;stroke:rgb(0%,0%,0%);stroke-opacity:1;stroke-miterlimit:10;" d="M 12.057422 13.980078 L 12.249414 14.171875 " transform="matrix(20,0,0,20,-100,-59)"/>
<path style="fill:none;stroke-width:0.05;stroke-linecap:butt;stroke-linejoin:miter;stroke:rgb(0%,0%,0%);stroke-opacity:1;stroke-miterlimit:10;" d="M 11.481836 13.788086 L 11.290039 13.980078 " transform="matrix(20,0,0,20,-100,-59)"/>
<path style="fill:none;stroke-width:0.05;stroke-linecap:butt;stroke-linejoin:miter;stroke:rgb(0%,0%,0%);stroke-opacity:1;stroke-miterlimit:10;" d="M 11.290039 13.980078 L 11.481836 14.171875 " transform="matrix(20,0,0,20,-100,-59)"/>
<path style="fill:none;stroke-width:0.05;stroke-linecap:butt;stroke-linejoin:miter;stroke:rgb(0%,0%,0%);stroke-opacity:1;stroke-miterlimit:10;" d="M 10.714453 13.788086 L 10.522461 13.980078 " transform="matrix(20,0,0,20,-100,-59)"/>
<path style="fill:none;stroke-width:0.05;stroke-linecap:butt;stroke-linejoin:miter;stroke:rgb(0%,0%,0%);stroke-opacity:1;stroke-miterlimit:10;" d="M 10.522461 13.980078 L 10.714453 14.171875 " transform="matrix(20,0,0,20,-100,-59)"/>
<path style="fill-rule:evenodd;fill:rgb(85.09804%,85.09804%,80.392158%);fill-opacity:1;stroke-width:0.1;stroke-linecap:butt;stroke-linejoin:miter;stroke:rgb(49.803922%,49.803922%,49.803922%);stroke-opacity:1;stroke-miterlimit:10;" d="M 9.563086 13.980078 L 10.330664 13.980078 L 10.330664 14.171875 L 9.563086 14.171875 Z M 9.563086 13.980078 " transform="matrix(20,0,0,20,-100,-59)"/>
<path style="fill:none;stroke-width:0.05;stroke-linecap:butt;stroke-linejoin:miter;stroke:rgb(0%,0%,0%);stroke-opacity:1;stroke-miterlimit:10;" d="M 9.563086 13.980078 L 10.330664 13.980078 L 10.330664 14.171875 L 9.563086 14.171875 Z M 9.563086 13.980078 " transform="matrix(20,0,0,20,-100,-59)"/>
<path style="fill-rule:evenodd;fill:rgb(80.392158%,80.392158%,80.392158%);fill-opacity:1;stroke-width:0.1;stroke-linecap:butt;stroke-linejoin:miter;stroke:rgb(49.803922%,49.803922%,49.803922%);stroke-opacity:1;stroke-miterlimit:10;" d="M 8.795703 13.404297 L 9.179297 13.788086 L 8.795703 14.171875 L 8.411914 13.788086 Z M 8.795703 13.404297 " transform="matrix(20,0,0,20,-100,-59)"/>
<path style="fill:none;stroke-width:0.05;stroke-linecap:butt;stroke-linejoin:miter;stroke:rgb(0%,0%,0%);stroke-opacity:1;stroke-miterlimit:10;" d="M 8.795703 13.404297 L 9.179297 13.788086 L 8.795703 14.171875 L 8.411914 13.788086 Z M 8.795703 13.404297 " transform="matrix(20,0,0,20,-100,-59)"/>
<path style="fill-rule:evenodd;fill:rgb(85.09804%,85.09804%,80.392158%);fill-opacity:1;stroke-width:0.1;stroke-linecap:butt;stroke-linejoin:miter;stroke:rgb(49.803922%,49.803922%,49.803922%);stroke-opacity:1;stroke-miterlimit:10;" d="M 8.219922 12.828711 L 15.894922 12.828711 L 15.894922 13.020508 L 8.219922 13.020508 Z M 8.219922 12.828711 " transform="matrix(20,0,0,20,-100,-59)"/>
<path style="fill:none;stroke-width:0.05;stroke-linecap:butt;stroke-linejoin:miter;stroke:rgb(0%,0%,0%);stroke-opacity:1;stroke-miterlimit:10;" d="M 8.219922 12.828711 L 15.894922 12.828711 L 15.894922 13.020508 L 8.219922 13.020508 Z M 8.219922 12.828711 " transform="matrix(20,0,0,20,-100,-59)"/>
<path style="fill-rule:evenodd;fill:rgb(80.392158%,80.392158%,80.392158%);fill-opacity:1;stroke-width:0.1;stroke-linecap:butt;stroke-linejoin:miter;stroke:rgb(49.803922%,49.803922%,49.803922%);stroke-opacity:1;stroke-miterlimit:10;" d="M 9.179297 12.828711 L 10.90625 12.828711 L 10.90625 13.020508 L 9.179297 13.020508 Z M 9.179297 12.828711 " transform="matrix(20,0,0,20,-100,-59)"/>
<path style="fill:none;stroke-width:0.05;stroke-linecap:butt;stroke-linejoin:miter;stroke:rgb(0%,0%,0%);stroke-opacity:1;stroke-miterlimit:10;" d="M 9.179297 12.828711 L 10.90625 12.828711 L 10.90625 13.020508 L 9.179297 13.020508 Z M 9.179297 12.828711 " transform="matrix(20,0,0,20,-100,-59)"/>
<path style="fill-rule:evenodd;fill:rgb(85.09804%,85.09804%,80.392158%);fill-opacity:1;stroke-width:0.1;stroke-linecap:butt;stroke-linejoin:miter;stroke:rgb(49.803922%,49.803922%,49.803922%);stroke-opacity:1;stroke-miterlimit:10;" d="M 8.140039 9.590039 L 15.815039 9.590039 L 15.815039 11.508789 L 8.140039 11.508789 Z M 8.140039 9.590039 " transform="matrix(20,0,0,20,-100,-59)"/>
<path style="fill:none;stroke-width:0.05;stroke-linecap:butt;stroke-linejoin:miter;stroke:rgb(0%,0%,0%);stroke-opacity:1;stroke-miterlimit:10;" d="M 8.140039 9.590039 L 15.815039 9.590039 L 15.815039 11.508789 L 8.140039 11.508789 Z M 8.140039 9.590039 " transform="matrix(20,0,0,20,-100,-59)"/>
<path style="fill:none;stroke-width:0.05;stroke-linecap:butt;stroke-linejoin:miter;stroke:rgb(0%,0%,0%);stroke-opacity:1;stroke-miterlimit:10;" d="M 9.483203 10.357422 L 9.291211 10.549414 " transform="matrix(20,0,0,20,-100,-59)"/>
<path style="fill:none;stroke-width:0.05;stroke-linecap:butt;stroke-linejoin:miter;stroke:rgb(0%,0%,0%);stroke-opacity:1;stroke-miterlimit:10;" d="M 9.291211 10.549414 L 9.483203 10.741211 " transform="matrix(20,0,0,20,-100,-59)"/>
<path style="fill:none;stroke-width:0.05;stroke-linecap:butt;stroke-linejoin:miter;stroke:rgb(0%,0%,0%);stroke-opacity:1;stroke-miterlimit:10;" d="M 10.250586 10.357422 L 10.058789 10.549414 " transform="matrix(20,0,0,20,-100,-59)"/>
<path style="fill:none;stroke-width:0.05;stroke-linecap:butt;stroke-linejoin:miter;stroke:rgb(0%,0%,0%);stroke-opacity:1;stroke-miterlimit:10;" d="M 10.058789 10.549414 L 10.250586 10.741211 " transform="matrix(20,0,0,20,-100,-59)"/>
<path style="fill:none;stroke-width:0.05;stroke-linecap:butt;stroke-linejoin:miter;stroke:rgb(0%,0%,0%);stroke-opacity:1;stroke-miterlimit:10;" d="M 11.018164 10.357422 L 10.826172 10.549414 " transform="matrix(20,0,0,20,-100,-59)"/>
<path style="fill:none;stroke-width:0.05;stroke-linecap:butt;stroke-linejoin:miter;stroke:rgb(0%,0%,0%);stroke-opacity:1;stroke-miterlimit:10;" d="M 10.826172 10.549414 L 11.018164 10.741211 " transform="matrix(20,0,0,20,-100,-59)"/>
<path style="fill:none;stroke-width:0.05;stroke-linecap:butt;stroke-linejoin:miter;stroke:rgb(0%,0%,0%);stroke-opacity:1;stroke-miterlimit:10;" d="M 11.785547 10.357422 L 11.59375 10.549414 " transform="matrix(20,0,0,20,-100,-59)"/>
<path style="fill:none;stroke-width:0.05;stroke-linecap:butt;stroke-linejoin:miter;stroke:rgb(0%,0%,0%);stroke-opacity:1;stroke-miterlimit:10;" d="M 11.59375 10.549414 L 11.785547 10.741211 " transform="matrix(20,0,0,20,-100,-59)"/>
<path style="fill:none;stroke-width:0.05;stroke-linecap:butt;stroke-linejoin:miter;stroke:rgb(0%,0%,0%);stroke-opacity:1;stroke-miterlimit:10;" d="M 12.553125 10.357422 L 12.361328 10.549414 " transform="matrix(20,0,0,20,-100,-59)"/>
<path style="fill:none;stroke-width:0.05;stroke-linecap:butt;stroke-linejoin:miter;stroke:rgb(0%,0%,0%);stroke-opacity:1;stroke-miterlimit:10;" d="M 12.361328 10.549414 L 12.553125 10.741211 " transform="matrix(20,0,0,20,-100,-59)"/>
<path style="fill:none;stroke-width:0.05;stroke-linecap:butt;stroke-linejoin:miter;stroke:rgb(0%,0%,0%);stroke-opacity:1;stroke-miterlimit:10;" d="M 13.320703 10.357422 L 13.128711 10.549414 " transform="matrix(20,0,0,20,-100,-59)"/>
<path style="fill:none;stroke-width:0.05;stroke-linecap:butt;stroke-linejoin:miter;stroke:rgb(0%,0%,0%);stroke-opacity:1;stroke-miterlimit:10;" d="M 13.128711 10.549414 L 13.320703 10.741211 " transform="matrix(20,0,0,20,-100,-59)"/>
<path style="fill:none;stroke-width:0.05;stroke-linecap:butt;stroke-linejoin:miter;stroke:rgb(0%,0%,0%);stroke-opacity:1;stroke-miterlimit:10;" d="M 14.088086 10.357422 L 13.896289 10.549414 " transform="matrix(20,0,0,20,-100,-59)"/>
<path style="fill:none;stroke-width:0.05;stroke-linecap:butt;stroke-linejoin:miter;stroke:rgb(0%,0%,0%);stroke-opacity:1;stroke-miterlimit:10;" d="M 13.896289 10.549414 L 14.088086 10.741211 " transform="matrix(20,0,0,20,-100,-59)"/>
<path style="fill:none;stroke-width:0.05;stroke-linecap:butt;stroke-linejoin:miter;stroke:rgb(0%,0%,0%);stroke-opacity:1;stroke-miterlimit:10;" d="M 14.855664 10.357422 L 14.663672 10.549414 " transform="matrix(20,0,0,20,-100,-59)"/>
<path style="fill:none;stroke-width:0.05;stroke-linecap:butt;stroke-linejoin:miter;stroke:rgb(0%,0%,0%);stroke-opacity:1;stroke-miterlimit:10;" d="M 14.663672 10.549414 L 14.855664 10.741211 " transform="matrix(20,0,0,20,-100,-59)"/>
<path style="fill:none;stroke-width:0.05;stroke-linecap:butt;stroke-linejoin:miter;stroke:rgb(0%,0%,0%);stroke-opacity:1;stroke-miterlimit:10;" d="M 15.239453 10.933203 L 15.047461 11.125 " transform="matrix(20,0,0,20,-100,-59)"/>
<path style="fill:none;stroke-width:0.05;stroke-linecap:butt;stroke-linejoin:miter;stroke:rgb(0%,0%,0%);stroke-opacity:1;stroke-miterlimit:10;" d="M 15.047461 11.125 L 15.239453 11.316797 " transform="matrix(20,0,0,20,-100,-59)"/>
<path style="fill:none;stroke-width:0.05;stroke-linecap:butt;stroke-linejoin:miter;stroke:rgb(0%,0%,0%);stroke-opacity:1;stroke-miterlimit:10;" d="M 14.471875 10.933203 L 14.280078 11.125 " transform="matrix(20,0,0,20,-100,-59)"/>
<path style="fill:none;stroke-width:0.05;stroke-linecap:butt;stroke-linejoin:miter;stroke:rgb(0%,0%,0%);stroke-opacity:1;stroke-miterlimit:10;" d="M 14.280078 11.125 L 14.471875 11.316797 " transform="matrix(20,0,0,20,-100,-59)"/>
<path style="fill:none;stroke-width:0.05;stroke-linecap:butt;stroke-linejoin:miter;stroke:rgb(0%,0%,0%);stroke-opacity:1;stroke-miterlimit:10;" d="M 13.704297 10.933203 L 13.5125 11.125 " transform="matrix(20,0,0,20,-100,-59)"/>
<path style="fill:none;stroke-width:0.05;stroke-linecap:butt;stroke-linejoin:miter;stroke:rgb(0%,0%,0%);stroke-opacity:1;stroke-miterlimit:10;" d="M 13.5125 11.125 L 13.704297 11.316797 " transform="matrix(20,0,0,20,-100,-59)"/>
<path style="fill:none;stroke-width:0.05;stroke-linecap:butt;stroke-linejoin:miter;stroke:rgb(0%,0%,0%);stroke-opacity:1;stroke-miterlimit:10;" d="M 12.936914 10.933203 L 12.744922 11.125 " transform="matrix(20,0,0,20,-100,-59)"/>
<path style="fill:none;stroke-width:0.05;stroke-linecap:butt;stroke-linejoin:miter;stroke:rgb(0%,0%,0%);stroke-opacity:1;stroke-miterlimit:10;" d="M 12.744922 11.125 L 12.936914 11.316797 " transform="matrix(20,0,0,20,-100,-59)"/>
<path style="fill:none;stroke-width:0.05;stroke-linecap:butt;stroke-linejoin:miter;stroke:rgb(0%,0%,0%);stroke-opacity:1;stroke-miterlimit:10;" d="M 12.169336 10.933203 L 11.977539 11.125 " transform="matrix(20,0,0,20,-100,-59)"/>
<path style="fill:none;stroke-width:0.05;stroke-linecap:butt;stroke-linejoin:miter;stroke:rgb(0%,0%,0%);stroke-opacity:1;stroke-miterlimit:10;" d="M 11.977539 11.125 L 12.169336 11.316797 " transform="matrix(20,0,0,20,-100,-59)"/>
<path style="fill:none;stroke-width:0.05;stroke-linecap:butt;stroke-linejoin:miter;stroke:rgb(0%,0%,0%);stroke-opacity:1;stroke-miterlimit:10;" d="M 11.401953 10.933203 L 11.209961 11.125 " transform="matrix(20,0,0,20,-100,-59)"/>
<path style="fill:none;stroke-width:0.05;stroke-linecap:butt;stroke-linejoin:miter;stroke:rgb(0%,0%,0%);stroke-opacity:1;stroke-miterlimit:10;" d="M 11.209961 11.125 L 11.401953 11.316797 " transform="matrix(20,0,0,20,-100,-59)"/>
<path style="fill:none;stroke-width:0.05;stroke-linecap:butt;stroke-linejoin:miter;stroke:rgb(0%,0%,0%);stroke-opacity:1;stroke-miterlimit:10;" d="M 10.634375 10.933203 L 10.442578 11.125 " transform="matrix(20,0,0,20,-100,-59)"/>
<path style="fill:none;stroke-width:0.05;stroke-linecap:butt;stroke-linejoin:miter;stroke:rgb(0%,0%,0%);stroke-opacity:1;stroke-miterlimit:10;" d="M 10.442578 11.125 L 10.634375 11.316797 " transform="matrix(20,0,0,20,-100,-59)"/>
<path style="fill-rule:evenodd;fill:rgb(85.09804%,85.09804%,80.392158%);fill-opacity:1;stroke-width:0.1;stroke-linecap:butt;stroke-linejoin:miter;stroke:rgb(49.803922%,49.803922%,49.803922%);stroke-opacity:1;stroke-miterlimit:10;" d="M 9.483203 11.125 L 10.250781 11.125 L 10.250781 11.316797 L 9.483203 11.316797 Z M 9.483203 11.125 " transform="matrix(20,0,0,20,-100,-59)"/>
<path style="fill:none;stroke-width:0.05;stroke-linecap:butt;stroke-linejoin:miter;stroke:rgb(0%,0%,0%);stroke-opacity:1;stroke-miterlimit:10;" d="M 9.483203 11.125 L 10.250781 11.125 L 10.250781 11.316797 L 9.483203 11.316797 Z M 9.483203 11.125 " transform="matrix(20,0,0,20,-100,-59)"/>
<path style="fill-rule:evenodd;fill:rgb(80.392158%,80.392158%,80.392158%);fill-opacity:1;stroke-width:0.1;stroke-linecap:butt;stroke-linejoin:miter;stroke:rgb(49.803922%,49.803922%,49.803922%);stroke-opacity:1;stroke-miterlimit:10;" d="M 8.715625 10.549414 L 9.099414 10.933203 L 8.715625 11.316797 L 8.331836 10.933203 Z M 8.715625 10.549414 " transform="matrix(20,0,0,20,-100,-59)"/>
<path style="fill:none;stroke-width:0.05;stroke-linecap:butt;stroke-linejoin:miter;stroke:rgb(0%,0%,0%);stroke-opacity:1;stroke-miterlimit:10;" d="M 8.715625 10.549414 L 9.099414 10.933203 L 8.715625 11.316797 L 8.331836 10.933203 Z M 8.715625 10.549414 " transform="matrix(20,0,0,20,-100,-59)"/>
<path style="fill-rule:evenodd;fill:rgb(85.09804%,85.09804%,80.392158%);fill-opacity:1;stroke-width:0.1;stroke-linecap:butt;stroke-linejoin:miter;stroke:rgb(49.803922%,49.803922%,49.803922%);stroke-opacity:1;stroke-miterlimit:10;" d="M 8.140039 9.973828 L 15.815039 9.973828 L 15.815039 10.165625 L 8.140039 10.165625 Z M 8.140039 9.973828 " transform="matrix(20,0,0,20,-100,-59)"/>
<path style="fill:none;stroke-width:0.05;stroke-linecap:butt;stroke-linejoin:miter;stroke:rgb(0%,0%,0%);stroke-opacity:1;stroke-miterlimit:10;" d="M 8.140039 9.973828 L 15.815039 9.973828 L 15.815039 10.165625 L 8.140039 10.165625 Z M 8.140039 9.973828 " transform="matrix(20,0,0,20,-100,-59)"/>
<path style="fill-rule:evenodd;fill:rgb(80.392158%,80.392158%,80.392158%);fill-opacity:1;stroke-width:0.1;stroke-linecap:butt;stroke-linejoin:miter;stroke:rgb(49.803922%,49.803922%,49.803922%);stroke-opacity:1;stroke-miterlimit:10;" d="M 9.099414 9.973828 L 10.826367 9.973828 L 10.826367 10.165625 L 9.099414 10.165625 Z M 9.099414 9.973828 " transform="matrix(20,0,0,20,-100,-59)"/>
<path style="fill:none;stroke-width:0.05;stroke-linecap:butt;stroke-linejoin:miter;stroke:rgb(0%,0%,0%);stroke-opacity:1;stroke-miterlimit:10;" d="M 9.099414 9.973828 L 10.826367 9.973828 L 10.826367 10.165625 L 9.099414 10.165625 Z M 9.099414 9.973828 " transform="matrix(20,0,0,20,-100,-59)"/>
<path style="fill-rule:evenodd;fill:rgb(62.352943%,62.352943%,62.352943%);fill-opacity:1;stroke-width:0.1;stroke-linecap:butt;stroke-linejoin:miter;stroke:rgb(49.803922%,49.803922%,49.803922%);stroke-opacity:1;stroke-miterlimit:10;" d="M 11.6 4.5 L 14.525 4.5 L 14.525 7.425 L 11.6 7.425 Z M 11.6 4.5 " transform="matrix(20,0,0,20,-100,-59)"/>
<path style="fill:none;stroke-width:0.1;stroke-linecap:butt;stroke-linejoin:miter;stroke:rgb(49.803922%,49.803922%,49.803922%);stroke-opacity:1;stroke-miterlimit:10;" d="M 11.6 4.5 L 14.525 4.5 L 14.525 7.425 L 11.6 7.425 Z M 11.6 4.5 " transform="matrix(20,0,0,20,-100,-59)"/>
<path style="fill:none;stroke-width:0.13;stroke-linecap:butt;stroke-linejoin:miter;stroke:rgb(100%,100%,100%);stroke-opacity:1;stroke-miterlimit:10;" d="M 13.243555 4.973437 C 13.243555 6.435937 13.535937 6.143555 12.073437 6.143555 " transform="matrix(20,0,0,20,-100,-59)"/>
<path style="fill:none;stroke-width:0.08;stroke-linecap:butt;stroke-linejoin:miter;stroke:rgb(0%,0%,0%);stroke-opacity:1;stroke-miterlimit:10;" d="M 13.243555 4.973437 C 13.243555 6.435937 13.535937 6.143555 12.073437 6.143555 " transform="matrix(20,0,0,20,-100,-59)"/>
<path style="fill-rule:evenodd;fill:rgb(0%,0%,0%);fill-opacity:1;stroke-width:0.1;stroke-linecap:butt;stroke-linejoin:miter;stroke:rgb(49.803922%,49.803922%,49.803922%);stroke-opacity:1;stroke-miterlimit:10;" d="M 13.38418 5.201953 L 13.238086 4.90957 L 13.091797 5.201953 Z M 13.38418 5.201953 " transform="matrix(20,0,0,20,-100,-59)"/>
<path style="fill-rule:evenodd;fill:rgb(0%,0%,0%);fill-opacity:1;stroke-width:0.1;stroke-linecap:butt;stroke-linejoin:miter;stroke:rgb(49.803922%,49.803922%,49.803922%);stroke-opacity:1;stroke-miterlimit:10;" d="M 12.301953 5.991797 L 12.00957 6.138086 L 12.301953 6.28418 Z M 12.301953 5.991797 " transform="matrix(20,0,0,20,-100,-59)"/>
<path style="fill:none;stroke-width:0.13;stroke-linecap:butt;stroke-linejoin:miter;stroke:rgb(100%,100%,100%);stroke-opacity:1;stroke-miterlimit:10;" d="M 14.111328 5.796289 C 12.648828 5.796289 12.941406 5.503711 12.941406 6.966211 " transform="matrix(20,0,0,20,-100,-59)"/>
<path style="fill:none;stroke-width:0.08;stroke-linecap:butt;stroke-linejoin:miter;stroke:rgb(0%,0%,0%);stroke-opacity:1;stroke-miterlimit:10;" d="M 14.111328 5.796289 C 12.648828 5.796289 12.941406 5.503711 12.941406 6.966211 " transform="matrix(20,0,0,20,-100,-59)"/>
<path style="fill-rule:evenodd;fill:rgb(0%,0%,0%);fill-opacity:1;stroke-width:0.1;stroke-linecap:butt;stroke-linejoin:miter;stroke:rgb(49.803922%,49.803922%,49.803922%);stroke-opacity:1;stroke-miterlimit:10;" d="M 13.852344 5.933203 L 14.144727 5.786914 L 13.852344 5.64082 Z M 13.852344 5.933203 " transform="matrix(20,0,0,20,-100,-59)"/>
<path style="fill-rule:evenodd;fill:rgb(0%,0%,0%);fill-opacity:1;stroke-width:0.1;stroke-linecap:butt;stroke-linejoin:miter;stroke:rgb(49.803922%,49.803922%,49.803922%);stroke-opacity:1;stroke-miterlimit:10;" d="M 12.769922 6.723047 L 12.916211 7.01543 L 13.0625 6.723047 Z M 12.769922 6.723047 " transform="matrix(20,0,0,20,-100,-59)"/>
<path style="fill:none;stroke-width:0.1;stroke-linecap:butt;stroke-linejoin:miter;stroke:rgb(49.803922%,49.803922%,49.803922%);stroke-opacity:1;stroke-miterlimit:10;" d="M 7.595508 10.565625 C 6.671289 10.972656 5.95293 11.739258 5.606641 12.688086 C 5.260352 13.636914 5.316211 14.685937 5.761133 15.592773 C 6.206055 16.499414 7.001562 17.185547 7.963867 17.492187 C 8.926172 17.799023 9.97207 17.7 10.85957 17.217969 " transform="matrix(20,0,0,20,-100,-59)"/>
<path style="fill-rule:evenodd;fill:rgb(49.803922%,49.803922%,49.803922%);fill-opacity:1;stroke-width:0.1;stroke-linecap:butt;stroke-linejoin:miter;stroke:rgb(49.803922%,49.803922%,49.803922%);stroke-opacity:1;stroke-miterlimit:10;" d="M 7.942773 10.431445 L 7.532812 10.811523 L 7.582812 10.536523 L 7.392578 10.331641 Z M 7.942773 10.431445 " transform="matrix(20,0,0,20,-100,-59)"/>
<path style="fill:none;stroke-width:0.1;stroke-linecap:butt;stroke-linejoin:miter;stroke:rgb(49.803922%,49.803922%,49.803922%);stroke-opacity:1;stroke-miterlimit:10;" d="M 7.801953 13.642383 C 7.125 14.112109 6.698242 14.864062 6.642187 15.686133 C 6.586133 16.508203 6.907031 17.311133 7.514258 17.868164 C 8.121289 18.425195 8.948828 18.675977 9.763086 18.549609 C 10.577344 18.423437 11.289844 17.933594 11.699609 17.21875 " transform="matrix(20,0,0,20,-100,-59)"/>
<path style="fill-rule:evenodd;fill:rgb(49.803922%,49.803922%,49.803922%);fill-opacity:1;stroke-width:0.1;stroke-linecap:butt;stroke-linejoin:miter;stroke:rgb(49.803922%,49.803922%,49.803922%);stroke-opacity:1;stroke-miterlimit:10;" d="M 8.118359 13.450781 L 7.767578 13.886133 L 7.777344 13.606836 L 7.55957 13.431445 Z M 8.118359 13.450781 " transform="matrix(20,0,0,20,-100,-59)"/>
<path style="fill:none;stroke-width:0.1;stroke-linecap:butt;stroke-linejoin:miter;stroke:rgb(49.803922%,49.803922%,49.803922%);stroke-opacity:1;stroke-miterlimit:10;" d="M 11.813086 12.863281 C 11.444141 12.251367 10.832227 11.825391 10.130469 11.691602 C 9.428711 11.557812 8.70293 11.728906 8.134961 12.162109 C 7.566797 12.595312 7.209766 13.249805 7.15293 13.961914 C 7.096094 14.674219 7.345117 15.376953 7.8375 15.894727 " transform="matrix(20,0,0,20,-100,-59)"/>
<path style="fill-rule:evenodd;fill:rgb(49.803922%,49.803922%,49.803922%);fill-opacity:1;stroke-width:0.1;stroke-linecap:butt;stroke-linejoin:miter;stroke:rgb(49.803922%,49.803922%,49.803922%);stroke-opacity:1;stroke-miterlimit:10;" d="M 8.108984 16.144531 L 7.556641 16.057812 L 7.803516 15.926758 L 7.846875 15.650586 Z M 8.108984 16.144531 " transform="matrix(20,0,0,20,-100,-59)"/>
<path style="fill:none;stroke-width:0.1;stroke-linecap:butt;stroke-linejoin:miter;stroke:rgb(49.803922%,49.803922%,49.803922%);stroke-opacity:1;stroke-miterlimit:10;" d="M 11.127734 5.855859 C 9.316211 5.561719 7.539648 6.550781 6.835352 8.245508 C 6.131055 9.94043 6.683398 11.897266 8.169922 12.973633 " transform="matrix(20,0,0,20,-100,-59)"/>
<path style="fill-rule:evenodd;fill:rgb(49.803922%,49.803922%,49.803922%);fill-opacity:1;stroke-width:0.1;stroke-linecap:butt;stroke-linejoin:miter;stroke:rgb(49.803922%,49.803922%,49.803922%);stroke-opacity:1;stroke-miterlimit:10;" d="M 11.492578 5.93125 L 10.942773 6.031641 L 11.132617 5.826367 L 11.082422 5.551562 Z M 11.492578 5.93125 " transform="matrix(20,0,0,20,-100,-59)"/>
</g>
</svg>
